<?xml version="1.0" encoding="UTF-8"?>
<svg version="1.1" xmlns="http://www.w3.org/2000/svg" width="600" height="200">
<path d="M0 0 C15.778125 -0.1546875 15.778125 -0.1546875 31.875 -0.3125 C35.17741699 -0.35802002 38.47983398 -0.40354004 41.88232422 -0.45043945 C44.52310167 -0.46505339 47.16389045 -0.47779191 49.8046875 -0.48828125 C50.81415939 -0.50788155 50.81415939 -0.50788155 51.84402466 -0.52787781 C61.54661479 -0.70659648 69.3188163 0.08489942 76.8678894 6.61601257 C82.78863355 12.54412992 85.18116996 20.80606806 85.5 29 C85.08092078 40.12727596 80.64791653 47.37425134 73 55 C73.59167969 55.35191406 74.18335938 55.70382813 74.79296875 56.06640625 C82.88319588 61.12114849 86.78941365 65.61707455 89 75 C90.33458547 87.03186926 88.96628658 97.78701172 81.3203125 107.5390625 C74.06616477 115.56584135 62.083767 115.87958144 52 117 C34.84 117 17.68 117 0 117 C0 78.39 0 39.78 0 0 Z M31 25 C31 31.93 31 38.86 31 46 C43.00232861 46.72034167 43.00232861 46.72034167 53.5 41.875 C55.58944515 37.87023013 55.42878985 35.50229346 55 31 C53.82986774 27.5796134 53.12689277 27.08459518 50 25 C47.8729569 24.72558628 47.8729569 24.72558628 45.55078125 24.8046875 C44.4047644 24.81218018 44.4047644 24.81218018 43.2355957 24.81982422 C42.27097412 24.83803223 41.30635254 24.85624023 40.3125 24.875 C37.239375 24.91625 34.16625 24.9575 31 25 Z M31 69 C31 76.26 31 83.52 31 91 C44.26135026 91.68719055 44.26135026 91.68719055 56.5 87.4375 C58.75021617 83.78089873 59.19788701 80.26218182 59 76 C57.79040218 73.00783696 56.93160319 71.57739201 54.19824219 69.88330078 C51.64257172 68.85637766 49.76408204 68.77116973 47.015625 68.8046875 C46.17290039 68.80968262 45.33017578 68.81467773 44.46191406 68.81982422 C43.40198242 68.83803223 42.34205078 68.85624023 41.25 68.875 C37.8675 68.91625 34.485 68.9575 31 69 Z " fill="#252525" transform="translate(377,36)"/>
<path d="M0 0 C9.57 0 19.14 0 29 0 C34.62600897 9.00161435 34.62600897 9.00161435 37.0234375 13.30078125 C37.56274902 14.2657251 38.10206055 15.23066895 38.65771484 16.22485352 C39.22441895 17.24377686 39.79112305 18.2627002 40.375 19.3125 C40.97135254 20.38105225 41.56770508 21.44960449 42.18212891 22.55053711 C44.12405101 26.03223048 46.06253267 29.51582682 48 33 C48.70441884 34.26628063 49.40884605 35.5325566 50.11328125 36.79882812 C54.41343259 44.53001845 58.70714004 52.26475234 63 60 C63.33 40.2 63.66 20.4 64 0 C73.24 0 82.48 0 92 0 C92 38.61 92 77.22 92 117 C82.76 117 73.52 117 64 117 C57.60306668 109.56008842 57.60306668 109.56008842 56.2734375 105.65625 C53.79349648 99.1538209 50.36554671 93.23914917 46.94177246 87.20419312 C45.24191625 84.18986119 43.58787349 81.15067246 41.9296875 78.11328125 C38.05074082 71.01552818 34.01602458 64.02804302 30 57 C29.67 76.8 29.34 96.6 29 117 C19.43 117 9.86 117 0 117 C0 78.39 0 39.78 0 0 Z " fill="#000000" transform="translate(170,36)"/>
<path d="M0 0 C26.4 0 52.8 0 80 0 C80 8.58 80 17.16 80 26 C63.83 26 47.66 26 31 26 C31 31.28 31 36.56 31 42 C45.85 42 60.7 42 76 42 C76 50.25 76 58.5 76 67 C61.15 67 46.3 67 31 67 C31 74.26 31 81.52 31 89 C47.5 89 64 89 81 89 C81 97.91 81 106.82 81 116 C54.27 116 27.54 116 0 116 C0 77.72 0 39.44 0 0 Z " fill="#67A14D" transform="translate(480,36)"/>
<path d="M0 0 C1.02480469 -0.01611328 2.04960937 -0.03222656 3.10546875 -0.04882812 C14.52620014 -0.05608399 24.31671036 2.6952593 32.65625 10.80078125 C38.16406001 17.56799904 40.92734509 27.68729029 40.125 36.3125 C30.42929046 37.24222557 20.85157452 37.42487377 11.125 37.3125 C10.88716797 36.40757813 10.88716797 36.40757813 10.64453125 35.484375 C9.54396001 31.71446245 8.54470424 28.83395072 6.0625 25.75 C1.74469072 23.6370295 -2.15948022 23.54245721 -6.875 24.3125 C-9.71574462 25.65072159 -9.71574462 25.65072159 -10.875 28.3125 C-11.44854142 31.88466696 -11.44854142 31.88466696 -9.875 35.3125 C-5.65838426 38.6105354 0.05597773 39.59008837 5.12719727 41.01049805 C18.3068986 44.71659885 31.84335315 49.19923279 39.45703125 61.45703125 C44.53327654 71.12521574 44.55686009 83.16138159 42.44140625 93.7265625 C39.21107774 103.24329794 32.7905421 111.77637343 23.8203125 116.53515625 C15.86931467 120.17176017 9.2086303 120.52383793 0.5 120.5625 C-1.20736328 120.5934375 -1.20736328 120.5934375 -2.94921875 120.625 C-14.20614847 120.67669658 -24.00202852 118.51929694 -32.52734375 110.8203125 C-39.10816989 103.82085874 -43.18940117 93.87823608 -43.875 84.3125 C-43.4140625 81.5234375 -43.4140625 81.5234375 -42.875 79.3125 C-33.49587413 78.51427652 -24.28713252 78.18376263 -14.875 78.3125 C-14.64425781 79.04855469 -14.41351563 79.78460938 -14.17578125 80.54296875 C-12.0065883 87.03339982 -10.28989359 92.10505321 -3.875 95.3125 C1.43780831 95.91136728 5.70016204 96.25289306 10.25 93.25 C13.14498096 88.71452984 13.48955403 85.24463637 12.5 80 C10.76544693 76.60973718 9.64652461 76.52343669 6.125 75.3125 C5.2985498 75.02665039 4.47209961 74.74080078 3.62060547 74.44628906 C2.75322754 74.15979492 1.88584961 73.87330078 0.9921875 73.578125 C-30.5274299 63.01989426 -30.5274299 63.01989426 -37.25 50.125 C-41.02141497 42.07384891 -41.1586621 31.93127238 -39.19140625 23.3203125 C-35.82684282 14.35745059 -30.84553704 8.39080406 -22.6328125 3.5390625 C-15.1494493 0.21076782 -8.07497553 -0.0252028 0 0 Z " fill="#252525" transform="translate(319.875,33.6875)"/>
<path d="M0 0 C0.99 0.99 0.99 0.99 2 2 C-3.31835035 6.90421651 -8.54759715 11.6291499 -14.6015625 15.61328125 C-15.29378906 16.29970703 -15.29378906 16.29970703 -16 17 C-16 18.32 -16 19.64 -16 21 C-18.08265884 23.04745897 -20.0956654 24.82653768 -22.375 26.625 C-23.5707047 27.59587134 -24.76603282 28.5672067 -25.9609375 29.5390625 C-26.96382813 30.35117188 -27.96671875 31.16328125 -29 32 C-29.99 32.99 -29.99 32.99 -31 34 C-30.34 34.66 -29.68 35.32 -29 36 C-29.97340332 36.8245166 -30.94680664 37.6490332 -31.94970703 38.49853516 C-34.86066058 41.42360657 -35.71059141 43.63442153 -35.83224487 47.86361694 C-35.82315094 48.57635773 -35.81405701 49.28909851 -35.8046875 50.0234375 C-35.81839386 50.76961334 -35.83210022 51.51578918 -35.84622192 52.28457642 C-35.8833686 54.64867291 -35.87981831 57.01065434 -35.875 59.375 C-35.89313789 60.98570969 -35.91394403 62.59639168 -35.9375 64.20703125 C-35.98920575 68.13837278 -36.00444112 72.06833723 -36 76 C-35.39671875 76.27585937 -34.7934375 76.55171875 -34.171875 76.8359375 C-31.24651154 78.40384813 -29.26903486 80.60490764 -27 83 C-27.66 83.66 -28.32 84.32 -29 85 C-26.7524911 86.62854254 -24.50215838 88.25290974 -22.25 89.875 C-21.61578125 90.33519531 -20.9815625 90.79539062 -20.328125 91.26953125 C-17.31304443 93.43662041 -14.41702887 95.49857822 -11 97 C-11 97.99 -11 98.98 -11 100 C-12.32 100 -13.64 100 -15 100 C-13.97519531 100.74765625 -12.95039063 101.4953125 -11.89453125 102.265625 C-10.53381138 103.26035814 -9.17313669 104.25515308 -7.8125 105.25 C-7.13896484 105.74113281 -6.46542969 106.23226562 -5.77148438 106.73828125 C-2.11358282 109.41479458 1.48620762 112.13438291 5 115 C4.67 115.99 4.34 116.98 4 118 C3.00484375 117.45472656 2.0096875 116.90945312 0.984375 116.34765625 C-10.10872122 110.33828004 -21.43901834 105.04430049 -33 100 C-33 99.01 -33 98.02 -33 97 C-32.34 96.67 -31.68 96.34 -31 96 C-36.33465301 92.22210212 -36.33465301 92.22210212 -42.5625 90.5625 C-46.81056183 89.86736261 -48.50311116 88.21093308 -51.51953125 85.27734375 C-52.9264874 83.7822481 -52.9264874 83.7822481 -55 84 C-55.63292969 85.14597656 -56.26585938 86.29195313 -56.91796875 87.47265625 C-58.64837732 89.99487131 -59.45099839 90.87146865 -62.46728516 91.57763672 C-65.44168907 91.68886292 -68.34117234 91.61049476 -71.3125 91.4375 C-72.33923828 91.40591797 -73.36597656 91.37433594 -74.42382812 91.34179688 C-76.95215184 91.25947936 -79.4745986 91.14459011 -82 91 C-82 89.35 -82 87.7 -82 86 C-80.02 85.01 -80.02 85.01 -78 84 C-78.495 80.535 -78.495 80.535 -79 77 C-81.31 78.32 -83.62 79.64 -86 81 C-85.01 81.495 -85.01 81.495 -84 82 C-84 82.66 -84 83.32 -84 84 C-84.66 84.45375 -85.32 84.9075 -86 85.375 C-86.66 85.91125 -87.32 86.4475 -88 87 C-88 88.32 -88 89.64 -88 91 C-88.61746094 91.01417969 -89.23492187 91.02835937 -89.87109375 91.04296875 C-96.68432002 91.42666642 -101.31518147 93.27877821 -107 97 C-106.67 97.99 -106.34 98.98 -106 100 C-106.73114014 100.37809814 -107.46228027 100.75619629 -108.21557617 101.14575195 C-111.54041674 102.86633387 -114.86396853 104.58939085 -118.1875 106.3125 C-119.33798828 106.90740234 -120.48847656 107.50230469 -121.67382812 108.11523438 C-123.34155273 108.98051758 -123.34155273 108.98051758 -125.04296875 109.86328125 C-126.06414795 110.39219971 -127.08532715 110.92111816 -128.13745117 111.46606445 C-130.0393549 112.48522532 -131.91125018 113.5625571 -133.74731445 114.69604492 C-136 116 -136 116 -138 116 C-136.40526038 111.53472907 -132.93096666 109.14492157 -129.375 106.25 C-128.76398438 105.74339844 -128.15296875 105.23679687 -127.5234375 104.71484375 C-126.02070947 103.4703971 -124.51102533 102.23435872 -123 101 C-123.33 99.68 -123.66 98.36 -124 97 C-122.96359375 96.38511719 -121.9271875 95.77023438 -120.859375 95.13671875 C-119.48951274 94.32043096 -118.11972498 93.50401813 -116.75 92.6875 C-116.06808594 92.28337891 -115.38617188 91.87925781 -114.68359375 91.46289062 C-111.3219843 89.45571605 -108.06940467 87.44444857 -105 85 C-105.99 84.34 -106.98 83.68 -108 83 C-106.84826645 80.53199953 -105.95216435 78.95216435 -104 77 C-103.75470419 74.42420615 -103.62658207 71.94770993 -103.5859375 69.3671875 C-103.56657135 68.61535187 -103.5472052 67.86351624 -103.5272522 67.08889771 C-103.46740853 64.68438101 -103.42105274 62.27981656 -103.375 59.875 C-103.33682454 58.24607272 -103.29777307 56.61716572 -103.2578125 54.98828125 C-103.16170334 50.99235194 -103.07769059 46.99632813 -103 43 C-103.79792969 42.71382812 -104.59585938 42.42765625 -105.41796875 42.1328125 C-108 41 -108 41 -109.3125 38.875 C-109.539375 38.25625 -109.76625 37.6375 -110 37 C-109.01 36.67 -108.02 36.34 -107 36 C-109.5607792 34.22666828 -112.12392667 32.45678951 -114.6875 30.6875 C-115.40873047 30.18798828 -116.12996094 29.68847656 -116.87304688 29.17382812 C-119.88163465 27.09941372 -122.84654517 25.08794371 -126.01953125 23.26953125 C-126.67308594 22.85058594 -127.32664062 22.43164062 -128 22 C-128 21.34 -128 20.68 -128 20 C-127.01 19.67 -126.02 19.34 -125 19 C-126.03640625 18.24074219 -127.0728125 17.48148438 -128.140625 16.69921875 C-129.51042517 15.6953241 -130.88021637 14.69141721 -132.25 13.6875 C-132.93191406 13.18798828 -133.61382812 12.68847656 -134.31640625 12.17382812 C-135.63428714 11.20780863 -136.95012544 10.23899491 -138.26367188 9.26708984 C-139.64791568 8.25693443 -141.06164944 7.28722592 -142.484375 6.33203125 C-142.98453125 5.89246094 -143.4846875 5.45289063 -144 5 C-144 4.01 -144 3.02 -144 2 C-139.74185797 3.61515732 -135.68847756 5.57941295 -131.625 7.625 C-130.93470703 7.97111328 -130.24441406 8.31722656 -129.53320312 8.67382812 C-122.28932582 12.32537391 -115.13687299 16.14444792 -108 20 C-108.495 21.485 -108.495 21.485 -109 23 C-103.98008514 27.19260768 -103.98008514 27.19260768 -97.75 28.3125 C-91.29040799 28.62488096 -86.81067166 33.05255167 -82 37 C-82.08700798 34.56077639 -82.19386002 32.12521586 -82.3125 29.6875 C-82.34633789 28.65206055 -82.34633789 28.65206055 -82.38085938 27.59570312 C-82.55234057 23.54757542 -82.55234057 23.54757542 -84.54296875 20.14453125 C-85.02378906 19.76683594 -85.50460938 19.38914062 -86 19 C-86 18.34 -86 17.68 -86 17 C-86.99 17 -87.98 17 -89 17 C-89.82638376 14.10765685 -90 12.11257569 -90 9 C-88.02 8.34 -86.04 7.68 -84 7 C-84 6.01 -84 5.02 -84 4 C-75.09 4 -66.18 4 -57 4 C-57 5.32 -57 6.64 -57 8 C-56.05125 7.938125 -55.1025 7.87625 -54.125 7.8125 C-53.09375 7.874375 -52.0625 7.93625 -51 8 C-50.01 9.485 -50.01 9.485 -49 11 C-49.99 12.98 -50.98 14.96 -52 17 C-52.66 17 -53.32 17 -54 17 C-54.4640625 17.9590625 -54.4640625 17.9590625 -54.9375 18.9375 C-56 21 -56 21 -57 22 C-57.23287008 23.68183948 -57.41264166 25.3712416 -57.5625 27.0625 C-57.68818359 28.44115234 -57.68818359 28.44115234 -57.81640625 29.84765625 C-57.87699219 30.55792969 -57.93757813 31.26820312 -58 32 C-59.32 31.67 -60.64 31.34 -62 31 C-61.01 31.8353125 -61.01 31.8353125 -60 32.6875 C-58 35 -58 35 -57.75 37.75 C-57.8325 38.4925 -57.915 39.235 -58 40 C-56.35 39.01 -54.7 38.02 -53 37 C-53.33 36.01 -53.66 35.02 -54 34 C-53.01 33.34 -52.02 32.68 -51 32 C-51 31.01 -51 30.02 -51 29 C-50.030625 28.95875 -49.06125 28.9175 -48.0625 28.875 C-42.17643566 28.07017079 -37.11524558 24.11524558 -33 20 C-32.505 18.515 -32.505 18.515 -32 17 C-29.66061641 15.66923096 -27.37186464 14.50483559 -24.9375 13.375 C-18.83767727 10.44485684 -12.88303517 7.34516379 -7 4 C-6.2999585 3.60216309 -5.59991699 3.20432617 -4.87866211 2.79443359 C-3.25065806 1.86607611 -1.6250411 0.93353425 0 0 Z M-51.5625 55 C-52.20316406 55.556875 -52.84382813 56.11375 -53.50390625 56.6875 C-53.99761719 57.120625 -54.49132812 57.55375 -55 58 C-52.41409657 61.50944037 -51.0084034 62.9957983 -47 65 C-47 60.71 -47 56.42 -47 52 C-48.87824891 52 -50.21518837 53.82416439 -51.5625 55 Z M-92 53 C-92.495 60.425 -92.495 60.425 -93 68 C-88.81077468 65.21830618 -88.81077468 65.21830618 -85 62 C-85 60.68 -85 59.36 -85 58 C-86.51234366 56.4363243 -86.51234366 56.4363243 -88.5 55.25 C-89.655 54.5075 -90.81 53.765 -92 53 Z M-69 75 C-68.67 75.66 -68.34 76.32 -68 77 C-67.67 76.34 -67.34 75.68 -67 75 C-67.66 75 -68.32 75 -69 75 Z M-63 78 C-63.33 79.98 -63.66 81.96 -64 84 C-61.50638429 82.79618552 -59.31856917 81.54571278 -57 80 C-58.98 79.34 -60.96 78.68 -63 78 Z " fill="#F8F8F8" transform="translate(156,56)"/>
<path d="M0 0 C5.36502797 4.94258482 7.66218541 11.6438092 8.11328125 18.7578125 C8.40814306 30.40552108 6.9856671 40.02547486 -1.125 49 C-11.11140927 57.98776835 -28.69530823 57.15792102 -41.37890625 57.09765625 C-42.39206909 57.09664917 -43.40523193 57.09564209 -44.44909668 57.09460449 C-48.19524281 57.08941456 -51.94137267 57.07545365 -55.6875 57.0625 C-64.081875 57.041875 -72.47625 57.02125 -81.125 57 C-81.125 39.18 -81.125 21.36 -81.125 3 C-75.185 2.731875 -69.245 2.46375 -63.125 2.1875 C-48.37280952 1.48637334 -33.69512517 0.47800128 -19.00390625 -1.03442383 C-17.78316406 -1.15970459 -16.56242187 -1.28498535 -15.3046875 -1.4140625 C-14.25007324 -1.5270166 -13.19545898 -1.6399707 -12.10888672 -1.75634766 C-3.80390541 -2.43449946 -3.80390541 -2.43449946 0 0 Z M-50.125 9 C-50.125 16.26 -50.125 23.52 -50.125 31 C-36.86364974 31.68719055 -36.86364974 31.68719055 -24.625 27.4375 C-22.37478383 23.78089873 -21.92711299 20.26218182 -22.125 16 C-23.33459782 13.00783696 -24.19339681 11.57739201 -26.92675781 9.88330078 C-29.48242828 8.85637766 -31.36091796 8.77116973 -34.109375 8.8046875 C-34.95209961 8.80968262 -35.79482422 8.81467773 -36.66308594 8.81982422 C-37.72301758 8.83803223 -38.78294922 8.85624023 -39.875 8.875 C-43.2575 8.91625 -46.64 8.9575 -50.125 9 Z " fill="#000000" transform="translate(458.125,96)"/>
<path d="M0 0 C3.8127154 0.14050889 7.62511216 0.28838734 11.4375 0.4375 C13.04141602 0.49647461 13.04141602 0.49647461 14.67773438 0.55664062 C19.21443603 0.73699879 23.71397191 0.91837042 28.21875 1.5 C35.45412897 2.38067859 42.78249011 2.37188309 50.0625 2.5625 C51.61133766 2.60577992 53.16016594 2.64939692 54.70898438 2.69335938 C58.47255932 2.79946066 62.23623195 2.90099536 66 3 C69.71970904 13.36416686 69.74181402 26.55605489 65.26171875 36.7109375 C59.5260099 47.11689844 51.67802278 54.0820768 40.22583008 57.53491211 C35.37327459 58.5488551 30.31261876 58.22807938 25.375 58.25 C24.23675781 58.270625 23.09851563 58.29125 21.92578125 58.3125 C10.66885153 58.36419658 0.87297148 56.20679694 -7.65234375 48.5078125 C-14.23316989 41.50835874 -18.31440117 31.56573608 -19 22 C-18.5390625 19.2109375 -18.5390625 19.2109375 -18 17 C-8.62087413 16.20177652 0.58786748 15.87126263 10 16 C10.23074219 16.73605469 10.46148437 17.47210938 10.69921875 18.23046875 C12.8684117 24.72089982 14.58510641 29.79255321 21 33 C26.31280831 33.59886728 30.57516204 33.94039306 35.125 30.9375 C38.01998096 26.40202984 38.36455403 22.93213637 37.375 17.6875 C35.63946111 14.29531035 34.52344809 14.2143329 31 13 C30.15783936 12.70367676 29.31567871 12.40735352 28.44799805 12.10205078 C27.56152588 11.80282715 26.67505371 11.50360352 25.76171875 11.1953125 C24.28348633 10.69064453 24.28348633 10.69064453 22.77539062 10.17578125 C20.7296792 9.47964415 18.68281308 8.78689039 16.63476562 8.09765625 C10.82845268 6.10800113 5.41830327 3.88717235 0 1 C0 0.67 0 0.34 0 0 Z " fill="#000000" transform="translate(295,96)"/>
<path d="M0 0 C26.4 0 52.8 0 80 0 C80 8.58 80 17.16 80 26 C63.83 26 47.66 26 31 26 C31 31.28 31 36.56 31 42 C36.61 42 42.22 42 48 42 C40.55018569 46.96654287 30.99153233 48.28737247 22.35107422 50.21704102 C20.23880496 50.69000672 18.12917446 51.17367423 16.01953125 51.65820312 C14.66420742 51.96418429 13.30874335 52.26954507 11.953125 52.57421875 C10.73786133 52.84838623 9.52259766 53.12255371 8.27050781 53.4050293 C5 54 5 54 0 54 C0 36.18 0 18.36 0 0 Z " fill="#7DAE67" transform="translate(480,36)"/>
<path d="M0 0 C0.99 0.99 0.99 0.99 2 2 C-3.31835035 6.90421651 -8.54759715 11.6291499 -14.6015625 15.61328125 C-15.06304687 16.07089844 -15.52453125 16.52851562 -16 17 C-16 18.32 -16 19.64 -16 21 C-18.08265884 23.04745897 -20.0956654 24.82653768 -22.375 26.625 C-23.5707047 27.59587134 -24.76603282 28.5672067 -25.9609375 29.5390625 C-26.96382812 30.35117188 -27.96671875 31.16328125 -29 32 C-29.66 32.66 -30.32 33.32 -31 34 C-30.34 34.66 -29.68 35.32 -29 36 C-29.97340332 36.8245166 -30.94680664 37.6490332 -31.94970703 38.49853516 C-34.86066058 41.42360657 -35.71059141 43.63442153 -35.83224487 47.86361694 C-35.82315094 48.57635773 -35.81405701 49.28909851 -35.8046875 50.0234375 C-35.81839386 50.76961334 -35.83210022 51.51578918 -35.84622192 52.28457642 C-35.8833686 54.64867291 -35.87981831 57.01065434 -35.875 59.375 C-35.89313789 60.98570969 -35.91394403 62.59639168 -35.9375 64.20703125 C-35.98920575 68.13837278 -36.00444112 72.06833723 -36 76 C-35.39671875 76.27585937 -34.7934375 76.55171875 -34.171875 76.8359375 C-31.24651154 78.40384813 -29.26903486 80.60490764 -27 83 C-27.66 83.66 -28.32 84.32 -29 85 C-26.7524911 86.62854254 -24.50215838 88.25290974 -22.25 89.875 C-21.61578125 90.33519531 -20.9815625 90.79539062 -20.328125 91.26953125 C-17.31304443 93.43662041 -14.41702887 95.49857822 -11 97 C-11 97.99 -11 98.98 -11 100 C-12.32 100 -13.64 100 -15 100 C-13.97519531 100.74765625 -12.95039063 101.4953125 -11.89453125 102.265625 C-10.53381138 103.26035814 -9.17313669 104.25515308 -7.8125 105.25 C-6.80219727 105.98669922 -6.80219727 105.98669922 -5.77148438 106.73828125 C-2.11358282 109.41479458 1.48620762 112.13438291 5 115 C4.505 116.485 4.505 116.485 4 118 C3.00484375 117.45472656 2.0096875 116.90945312 0.984375 116.34765625 C-10.10872122 110.33828004 -21.43901834 105.04430049 -33 100 C-33 99.01 -33 98.02 -33 97 C-32.34 96.67 -31.68 96.34 -31 96 C-32.1766008 95.17179528 -33.36704553 94.36325034 -34.5625 93.5625 C-35.22378906 93.11003906 -35.88507813 92.65757812 -36.56640625 92.19140625 C-39.05307195 90.79591247 -39.05307195 90.79591247 -42.34375 90.6875 C-47.11910259 89.78957045 -49.43629007 87.65732681 -52.9375 84.4375 C-53.52595703 83.91736328 -54.11441406 83.39722656 -54.72070312 82.86132812 C-56.15862734 81.58707008 -57.58096959 80.29526535 -59 79 C-58.67 78.01 -58.34 77.02 -58 76 C-58.7425 75.319375 -58.7425 75.319375 -59.5 74.625 C-61 73 -61 73 -61 71 C-64.96 71 -68.92 71 -73 71 C-72.505 70.01 -72.505 70.01 -72 69 C-69.09375 68.62109375 -69.09375 68.62109375 -65.5 68.4375 C-61.43001233 68.58200531 -61.43001233 68.58200531 -58 67 C-58.1652565 65.6248298 -58.33221992 64.24986458 -58.5 62.875 C-58.57460062 59.53395813 -58.37674146 58.4064842 -56.0703125 55.91796875 C-53.76963245 54.17224507 -51.41870505 52.57608759 -49 51 C-46.58877632 49.03464283 -46.58877632 49.03464283 -46.8046875 45.3046875 C-46.817991 43.82799892 -46.84185165 42.35137642 -46.875 40.875 C-46.88402344 40.12089844 -46.89304687 39.36679688 -46.90234375 38.58984375 C-46.9259313 36.72642746 -46.96180281 34.86317407 -47 33 C-48.32 32.67 -49.64 32.34 -51 32 C-51 31.01 -51 30.02 -51 29 C-50.030625 28.95875 -49.06125 28.9175 -48.0625 28.875 C-42.17643566 28.07017079 -37.11524558 24.11524558 -33 20 C-32.505 18.515 -32.505 18.515 -32 17 C-29.66061641 15.66923096 -27.37186464 14.50483559 -24.9375 13.375 C-18.83767727 10.44485684 -12.88303517 7.34516379 -7 4 C-6.2999585 3.60216309 -5.59991699 3.20432617 -4.87866211 2.79443359 C-3.25065806 1.86607611 -1.6250411 0.93353425 0 0 Z M-51.5625 55 C-52.20316406 55.556875 -52.84382813 56.11375 -53.50390625 56.6875 C-53.99761719 57.120625 -54.49132812 57.55375 -55 58 C-52.41409657 61.50944037 -51.0084034 62.9957983 -47 65 C-47 60.71 -47 56.42 -47 52 C-48.87824891 52 -50.21518837 53.82416439 -51.5625 55 Z " fill="#31B056" transform="translate(156,56)"/>
<path d="M0 0 C4.25814203 1.61515732 8.31152244 3.57941295 12.375 5.625 C13.06529297 5.97111328 13.75558594 6.31722656 14.46679688 6.67382812 C21.71067418 10.32537391 28.86312701 14.14444792 36 18 C35.505 19.485 35.505 19.485 35 21 C39.98931553 25.18778811 39.98931553 25.18778811 46.1875 26.25 C52.79026417 26.61555096 58.57662383 31.35957153 63 36 C63.21484375 38.62890625 63.21484375 38.62890625 63 41 C64.93897879 43.67398476 64.93897879 43.67398476 67 46 C67 46.66 67 47.32 67 48 C66.0409375 48.1546875 66.0409375 48.1546875 65.0625 48.3125 C64.381875 48.539375 63.70125 48.76625 63 49 C62.67 49.99 62.34 50.98 62 52 C63.32 52.33 64.64 52.66 66 53 C66 55.64 66 58.28 66 61 C65.27167969 60.75378906 64.54335937 60.50757813 63.79296875 60.25390625 C60.90247935 59.6901408 60.90247935 59.6901408 58.61328125 61.65234375 C57.85402344 62.40644531 57.09476563 63.16054687 56.3125 63.9375 C52.16638079 68 52.16638079 68 50 68 C50.495 75.425 50.495 75.425 51 83 C52.65 83 54.3 83 56 83 C56 84.98 56 86.96 56 89 C55.38253906 89.01417969 54.76507813 89.02835937 54.12890625 89.04296875 C47.31567998 89.42666642 42.68481853 91.27877821 37 95 C37.33 95.99 37.66 96.98 38 98 C37.26885986 98.37809814 36.53771973 98.75619629 35.78442383 99.14575195 C32.45958326 100.86633387 29.13603147 102.58939085 25.8125 104.3125 C24.66201172 104.90740234 23.51152344 105.50230469 22.32617188 106.11523438 C20.65844727 106.98051758 20.65844727 106.98051758 18.95703125 107.86328125 C17.93585205 108.39219971 16.91467285 108.92111816 15.86254883 109.46606445 C13.9606451 110.48522532 12.08874982 111.5625571 10.25268555 112.69604492 C8 114 8 114 6 114 C7.59473962 109.53472907 11.06903334 107.14492157 14.625 104.25 C15.23601563 103.74339844 15.84703125 103.23679687 16.4765625 102.71484375 C17.97929053 101.4703971 19.48897467 100.23435872 21 99 C20.67 97.68 20.34 96.36 20 95 C21.03640625 94.38511719 22.0728125 93.77023438 23.140625 93.13671875 C24.51048726 92.32043096 25.88027502 91.50401813 27.25 90.6875 C27.93191406 90.28337891 28.61382812 89.87925781 29.31640625 89.46289062 C32.6780157 87.45571605 35.93059533 85.44444857 39 83 C38.01 82.34 37.02 81.68 36 81 C37.15173355 78.53199953 38.04783565 76.95216435 40 75 C40.24529581 72.42420615 40.37341793 69.94770993 40.4140625 67.3671875 C40.43342865 66.61535187 40.4527948 65.86351624 40.4727478 65.08889771 C40.53259147 62.68438101 40.57894726 60.27981656 40.625 57.875 C40.66317546 56.24607272 40.70222693 54.61716572 40.7421875 52.98828125 C40.83829666 48.99235194 40.92230941 44.99632813 41 41 C40.20207031 40.71382812 39.40414062 40.42765625 38.58203125 40.1328125 C36 39 36 39 34.6875 36.875 C34.460625 36.25625 34.23375 35.6375 34 35 C34.99 34.67 35.98 34.34 37 34 C34.4392208 32.22666828 31.87607333 30.45678951 29.3125 28.6875 C28.59126953 28.18798828 27.87003906 27.68847656 27.12695312 27.17382812 C24.11836535 25.09941372 21.15345483 23.08794371 17.98046875 21.26953125 C17.32691406 20.85058594 16.67335938 20.43164062 16 20 C16 19.34 16 18.68 16 18 C16.99 17.67 17.98 17.34 19 17 C17.96359375 16.24074219 16.9271875 15.48148438 15.859375 14.69921875 C14.48957483 13.6953241 13.11978363 12.69141721 11.75 11.6875 C11.06808594 11.18798828 10.38617188 10.68847656 9.68359375 10.17382812 C8.36571286 9.20780863 7.04987456 8.23899491 5.73632812 7.26708984 C4.35208432 6.25693443 2.93835056 5.28722592 1.515625 4.33203125 C1.01546875 3.89246094 0.5153125 3.45289063 0 3 C0 2.01 0 1.02 0 0 Z M52 51 C51.505 58.425 51.505 58.425 51 66 C55.18922532 63.21830618 55.18922532 63.21830618 59 60 C59 58.68 59 57.36 59 56 C57.48765634 54.4363243 57.48765634 54.4363243 55.5 53.25 C54.345 52.5075 53.19 51.765 52 51 Z " fill="#33AA51" transform="translate(12,58)"/>
<path d="M0 0 C4.03787195 -0.19847749 8.0738422 -0.34323514 12.11547852 -0.43945312 C13.4883775 -0.47957083 14.86093698 -0.53408586 16.23266602 -0.60351562 C27.50010079 -1.1593267 27.50010079 -1.1593267 30.80419922 1.39453125 C32.15978485 3.52639241 33.05488414 5.6571519 34 8 C35.05793758 9.90717215 36.13775343 11.8023054 37.234375 13.6875 C38.40821934 15.79056867 39.58002341 17.89477717 40.75 20 C41.9868575 22.21751578 43.22383684 24.43496361 44.4609375 26.65234375 C45.06131836 27.72983887 45.66169922 28.80733398 46.28027344 29.91748047 C48.63501248 34.13822652 51.00307145 38.35139647 53.375 42.5625 C53.74979492 43.22830078 54.12458984 43.89410156 54.51074219 44.58007812 C55.3402538 46.05352112 56.17008204 47.52678585 57 49 C53.53487193 50.18298048 51.30909044 49.80477221 47.80859375 48.84765625 C46.79023438 48.56978271 45.771875 48.29190918 44.72265625 48.00561523 C43.63855469 47.69438721 42.55445313 47.38315918 41.4375 47.0625 C40.32375 46.74547119 39.21 46.42844238 38.0625 46.10180664 C31.06181784 44.04841354 24.23310559 41.74839483 17.5 38.9375 C16.7670874 38.63400635 16.0341748 38.3305127 15.27905273 38.01782227 C13.14281054 37.08396872 11.07919823 36.05409289 9 35 C7.75875366 34.47599609 7.75875366 34.47599609 6.49243164 33.94140625 C3.71513416 32.53763537 1.97845853 31.41562422 0 29 C-1.10362886 24.02455552 -0.85200993 19.17716077 -0.5625 14.125 C-0.51730899 12.75533973 -0.47625232 11.38553642 -0.43945312 10.015625 C-0.33353857 6.67343228 -0.18575728 3.33855042 0 0 Z " fill="#252525" transform="translate(170,36)"/>
<path d="M0 0 C9.24 0 18.48 0 28 0 C28 18.48 28 36.96 28 56 C20 56 20 56 0 52 C0 34.84 0 17.68 0 0 Z " fill="#252525" transform="translate(234,36)"/>
<path d="M0 0 C1.32 0 2.64 0 4 0 C5.78125 2.34375 5.78125 2.34375 7.5 5.5 C8.10199219 6.59570312 8.70398438 7.69140625 9.32421875 8.8203125 C9.87722656 9.86960937 10.43023437 10.91890625 11 12 C11.41894531 12.78117187 11.83789062 13.56234375 12.26953125 14.3671875 C15.3474754 20.29251819 17.7559674 25.37370218 16.671875 32.09765625 C15.39277617 35.71929073 13.23724068 37.00785189 10 39 C7.125 39.3125 7.125 39.3125 5 39 C5.66 36.03 6.32 33.06 7 30 C6.21625 30.99 5.4325 31.98 4.625 33 C3.75875 33.99 2.8925 34.98 2 36 C1.34 36 0.68 36 0 36 C-1.32 33.36 -2.64 30.72 -4 28 C-4.2165625 29.11375 -4.2165625 29.11375 -4.4375 30.25 C-4.7159375 31.61125 -4.7159375 31.61125 -5 33 C-5.103125 33.721875 -5.20625 34.44375 -5.3125 35.1875 C-6.25733891 37.67843895 -7.64610686 37.93346558 -10 39 C-11.14842923 37.71064081 -12.29366227 36.41843421 -13.4375 35.125 C-14.07558594 34.40570313 -14.71367188 33.68640625 -15.37109375 32.9453125 C-17.70824906 30.15417738 -18.5625 27.88347897 -18.5625 24.1953125 C-17.50364039 20.06281873 -14.5155879 16.98807771 -11.84765625 13.74609375 C-9.82351562 10.73769869 -9.33086737 8.5765187 -9 5 C-8.01 5.33 -7.02 5.66 -6 6 C-5.3125 8.0625 -5.3125 8.0625 -5 10 C-4.34 10 -3.68 10 -3 10 C-2.01 6.7 -1.02 3.4 0 0 Z " fill="#E61C2E" transform="translate(86,20)"/>
<path d="M0 0 C8.91 0 17.82 0 27 0 C27 1.32 27 2.64 27 4 C27.94875 3.938125 28.8975 3.87625 29.875 3.8125 C30.90625 3.874375 31.9375 3.93625 33 4 C33.66 4.99 34.32 5.98 35 7 C34.01 8.98 33.02 10.96 32 13 C31.34 13 30.68 13 30 13 C29.690625 13.639375 29.38125 14.27875 29.0625 14.9375 C28 17 28 17 27 18 C26.76712992 19.68183948 26.58735834 21.3712416 26.4375 23.0625 C26.35371094 23.98160156 26.26992187 24.90070313 26.18359375 25.84765625 C26.09271484 26.91306641 26.09271484 26.91306641 26 28 C25.505 27.67515625 25.01 27.3503125 24.5 27.015625 C21.02427699 25.60361253 17.6900627 25.70989062 14 25.75 C13.2884375 25.74226563 12.576875 25.73453125 11.84375 25.7265625 C8.07570168 25.74062238 5.19510797 25.90321039 2 28 C1.96261719 27.31292969 1.92523438 26.62585938 1.88671875 25.91796875 C1.82097656 25.01691406 1.75523438 24.11585937 1.6875 23.1875 C1.62949219 22.29417969 1.57148437 21.40085937 1.51171875 20.48046875 C0.92877555 17.65475171 0.10016288 16.87494434 -2 15 C-2 14.34 -2 13.68 -2 13 C-2.99 13 -3.98 13 -5 13 C-5.82638376 10.10765685 -6 8.11257569 -6 5 C-4.02 4.34 -2.04 3.68 0 3 C0 2.01 0 1.02 0 0 Z " fill="#242021" transform="translate(72,60)"/>
<path d="M0 0 C2.82405426 0.05637858 3.75432284 0.08136713 6.0625 1.8125 C6.5575 2.555 6.5575 2.555 7.0625 3.3125 C7.3925 2.3225 7.7225 1.3325 8.0625 0.3125 C9.7125 0.3125 11.3625 0.3125 13.0625 0.3125 C13.7225 1.6325 14.3825 2.9525 15.0625 4.3125 C15.3925 2.9925 15.7225 1.6725 16.0625 0.3125 C17.3825 0.3125 18.7025 0.3125 20.0625 0.3125 C20.3925 3.9425 20.7225 7.5725 21.0625 11.3125 C22.3825 7.6825 23.7025 4.0525 25.0625 0.3125 C26.7125 0.3125 28.3625 0.3125 30.0625 0.3125 C31.3825 3.6125 32.7025 6.9125 34.0625 10.3125 C34.3925 7.0125 34.7225 3.7125 35.0625 0.3125 C36.3825 0.3125 37.7025 0.3125 39.0625 0.3125 C39.0625 4.2725 39.0625 8.2325 39.0625 12.3125 C41.3725 12.3125 43.6825 12.3125 46.0625 12.3125 C46.0625 13.6325 46.0625 14.9525 46.0625 16.3125 C41.1125 16.3125 36.1625 16.3125 31.0625 16.3125 C30.5675 14.8275 30.5675 14.8275 30.0625 13.3125 C28.4125 13.3125 26.7625 13.3125 25.0625 13.3125 C24.7325 14.3025 24.4025 15.2925 24.0625 16.3125 C18.68944301 16.75291451 18.68944301 16.75291451 16.0625 16.3125 C14.0625 13.8125 14.0625 13.8125 13.0625 11.3125 C12.7325 12.9625 12.4025 14.6125 12.0625 16.3125 C10.7425 16.3125 9.4225 16.3125 8.0625 16.3125 C7.7325 15.3225 7.4025 14.3325 7.0625 13.3125 C6.546875 13.828125 6.03125 14.34375 5.5 14.875 C3.0625 16.3125 3.0625 16.3125 -0.5 16.25 C-3.9375 15.3125 -3.9375 15.3125 -5.9375 13.8125 C-7.46995222 9.98136945 -6.95365685 6.27016354 -5.9375 2.3125 C-3.9375 0.3125 -3.9375 0.3125 0 0 Z M-0.9375 4.3125 C-1.5975 4.9725 -2.2575 5.6325 -2.9375 6.3125 C-2.61708603 8.91530568 -2.61708603 8.91530568 -1.9375 11.3125 C-0.9475 11.6425 0.0425 11.9725 1.0625 12.3125 C2.0525 11.3225 3.0425 10.3325 4.0625 9.3125 C3.4025 7.6625 2.7425 6.0125 2.0625 4.3125 C1.0725 4.3125 0.0825 4.3125 -0.9375 4.3125 Z M27.0625 6.3125 C28.0625 9.3125 28.0625 9.3125 28.0625 9.3125 Z " fill="#000000" transform="translate(219.9375,158.6875)"/>
<path d="M0 0 C3.63 0 7.26 0 11 0 C11 1.32 11 2.64 11 4 C8.69 4 6.38 4 4 4 C4 4.66 4 5.32 4 6 C6.31 6 8.62 6 11 6 C11 7.32 11 8.64 11 10 C8.69 10 6.38 10 4 10 C4 10.66 4 11.32 4 12 C6.64 12 9.28 12 12 12 C12 8.04 12 4.08 12 0 C13.65 0 15.3 0 17 0 C18.8125 2.5 18.8125 2.5 20 5 C20.33 3.35 20.66 1.7 21 0 C22.32 0 23.64 0 25 0 C25.33 0.99 25.66 1.98 26 3 C26.33 2.505 26.66 2.01 27 1.5 C30.24685713 -0.93514285 33.01076889 -0.31660564 37 0 C39 2 39 2 39 5 C35.94736336 5.98120464 34.05263664 5.98120464 31 5 C30.4465236 7.07553648 30 8.84365964 30 11 C30.66 11 31.32 11 32 11 C32 9.68 32 8.36 32 7 C34.31 7 36.62 7 39 7 C39 9.31 39 11.62 39 14 C36.1778917 15.91903365 34.87098068 15.99110212 31.375 15.75 C28 15 28 15 26 13 C25.67 13.99 25.34 14.98 25 16 C23.35 16 21.7 16 20 16 C19.01 14.02 18.02 12.04 17 10 C16.67 11.98 16.34 13.96 16 16 C10.72 16 5.44 16 0 16 C0 10.72 0 5.44 0 0 Z " fill="#000000" transform="translate(458,159)"/>
<path d="M0 0 C3.5 0.25 3.5 0.25 5.5 2.25 C5.21395102 3.92542976 4.88218767 5.59385343 4.5 7.25 C4.83 7.58 5.16 7.91 5.5 8.25 C5.974375 7.115625 6.44875 5.98125 6.9375 4.8125 C8.5 1.25 8.5 1.25 9.5 0.25 C16.86633663 -0.22524752 16.86633663 -0.22524752 19.5 1.75 C19.83 2.245 20.16 2.74 20.5 3.25 C21.015625 2.755 21.53125 2.26 22.0625 1.75 C25.35639847 -0.27701444 27.70122401 -0.10173852 31.5 0.25 C33.5 2.25 33.5 2.25 33.5 5.25 C32.18 5.58 30.86 5.91 29.5 6.25 C29.5 5.59 29.5 4.93 29.5 4.25 C27.52 5.24 27.52 5.24 25.5 6.25 C25.995 8.725 25.995 8.725 26.5 11.25 C29.965 10.755 29.965 10.755 33.5 10.25 C33.17 11.9 32.84 13.55 32.5 15.25 C29.3125 16 29.3125 16 25.5 16.25 C22.5625 14.3125 22.5625 14.3125 20.5 12.25 C20.005 12.930625 19.51 13.61125 19 14.3125 C16.19472336 16.4865894 15.72629056 16.49668859 12.375 16.125 C8.5 15.25 8.5 15.25 6.5 13.25 C5.984375 13.765625 5.46875 14.28125 4.9375 14.8125 C1.5289729 16.82265701 -0.73106857 16.04727396 -4.5 15.25 C-5.16 13.6 -5.82 11.95 -6.5 10.25 C-5.51 9.92 -4.52 9.59 -3.5 9.25 C-4.16 8.59 -4.82 7.93 -5.5 7.25 C-5.75 4.75 -5.75 4.75 -5.5 2.25 C-3.5 0.25 -3.5 0.25 0 0 Z M-1.5 4.25 C-1.17 4.91 -0.84 5.57 -0.5 6.25 C0.16 6.25 0.82 6.25 1.5 6.25 C1.5 5.59 1.5 4.93 1.5 4.25 C0.51 4.25 -0.48 4.25 -1.5 4.25 Z M11.5 4.25 C11.17 6.23 10.84 8.21 10.5 10.25 C12.48 11.24 12.48 11.24 14.5 12.25 C16.78728734 10.41116119 16.78728734 10.41116119 16.625 7.625 C16.58375 6.84125 16.5425 6.0575 16.5 5.25 C14.85 4.92 13.2 4.59 11.5 4.25 Z M-1.5 10.25 C-1.17 10.91 -0.84 11.57 -0.5 12.25 C0.16 12.25 0.82 12.25 1.5 12.25 C1.5 11.59 1.5 10.93 1.5 10.25 C0.51 10.25 -0.48 10.25 -1.5 10.25 Z " fill="#000000" transform="translate(276.5,158.75)"/>
<path d="M0 0 C2.04276982 1.89535344 2.7948678 3.42539939 4 6 C3.01 6.99 2.02 7.98 1 9 C0.34 8.67 -0.32 8.34 -1 8 C-1.33 9.32 -1.66 10.64 -2 12 C-1.01 11.34 -0.02 10.68 1 10 C3.6875 10.375 3.6875 10.375 6 11 C4.75179918 14.45655611 3.53416622 17.30946506 1 20 C-1.36010742 20.45410156 -1.36010742 20.45410156 -4.10546875 20.390625 C-5.57983398 20.37128906 -5.57983398 20.37128906 -7.08398438 20.3515625 C-8.10814453 20.31804687 -9.13230469 20.28453125 -10.1875 20.25 C-11.74114258 20.22292969 -11.74114258 20.22292969 -13.32617188 20.1953125 C-15.88504284 20.14814437 -18.44205842 20.08234057 -21 20 C-21 18.35 -21 16.7 -21 15 C-19.68 14.34 -18.36 13.68 -17 13 C-17.31182069 11.58318366 -17.62448737 10.16655349 -17.9375 8.75 C-18.19853516 7.56664062 -18.19853516 7.56664062 -18.46484375 6.359375 C-18.947556 4.23121297 -19.46163178 2.11467158 -20 0 C-6.21748996 -1.90609181 -6.21748996 -1.90609181 0 0 Z M-8 4 C-7.67 4.66 -7.34 5.32 -7 6 C-6.67 5.34 -6.34 4.68 -6 4 C-6.66 4 -7.32 4 -8 4 Z " fill="#C4C8C3" transform="translate(95,127)"/>
<path d="M0 0 C0.66 0.66 1.32 1.32 2 2 C-3.31835035 6.90421651 -8.54759715 11.6291499 -14.6015625 15.61328125 C-15.06304687 16.07089844 -15.52453125 16.52851562 -16 17 C-16 18.32 -16 19.64 -16 21 C-17.79296875 22.81640625 -17.79296875 22.81640625 -20.1875 24.5625 C-21.01121094 25.16835937 -21.83492187 25.77421875 -22.68359375 26.3984375 C-25.06501769 28.04495321 -27.4996956 29.5414891 -30 31 C-31.68477344 32.31037934 -33.35648543 33.63823078 -35 35 C-34.01 35.66 -33.02 36.32 -32 37 C-33.375 38.5 -33.375 38.5 -35 40 C-35.66 40 -36.32 40 -37 40 C-37.09765625 33.84765625 -37.09765625 33.84765625 -37 32 C-36.67 31.67 -36.34 31.34 -36 31 C-38.31 30.67 -40.62 30.34 -43 30 C-40.65779923 27.37673514 -38.37355143 25.55039029 -35.3125 23.875 C-31.95938281 22.38383627 -31.95938281 22.38383627 -31 20 C-31.66 20 -32.32 20 -33 20 C-32 17 -32 17 -28.96484375 15.2734375 C-27.62649369 14.6320038 -26.28369751 13.99979623 -24.9375 13.375 C-18.83767727 10.44485684 -12.88303517 7.34516379 -7 4 C-6.2999585 3.60216309 -5.59991699 3.20432617 -4.87866211 2.79443359 C-3.25065806 1.86607611 -1.6250411 0.93353425 0 0 Z " fill="#EEE905" transform="translate(156,56)"/>
<path d="M0 0 C4.43786114 -0.08068838 8.87426582 -0.14035639 13.3125 -0.1875 C14.57513672 -0.21263672 15.83777344 -0.23777344 17.13867188 -0.26367188 C18.34716797 -0.27333984 19.55566406 -0.28300781 20.80078125 -0.29296875 C21.91622314 -0.3086792 23.03166504 -0.32438965 24.1809082 -0.34057617 C27 0 27 0 28.88745117 1.51831055 C29.43816284 2.25174683 29.43816284 2.25174683 30 3 C30.66 2.01 31.32 1.02 32 0 C34.625 -0.1875 34.625 -0.1875 37 0 C36.72285156 0.4846875 36.44570313 0.969375 36.16015625 1.46875 C33.48790715 6.4138373 32.40032562 10.39544133 32 16 C30.68 16 29.36 16 28 16 C27.87625 14.948125 27.7525 13.89625 27.625 12.8125 C27.08859218 9.54041229 26.36119965 6.99463924 25 4 C23.35 4 21.7 4 20 4 C20 7.96 20 11.92 20 16 C18.68 16 17.36 16 16 16 C16 12.04 16 8.08 16 4 C12.04 4 8.08 4 4 4 C4 4.66 4 5.32 4 6 C6.31 6 8.62 6 11 6 C11 7.32 11 8.64 11 10 C8.69 10 6.38 10 4 10 C4 10.66 4 11.32 4 12 C6.64 12 9.28 12 12 12 C12 13.32 12 14.64 12 16 C8.04 16 4.08 16 0 16 C0 10.72 0 5.44 0 0 Z " fill="#000000" transform="translate(316,159)"/>
<path d="M0 0 C1.32 0 2.64 0 4 0 C5.78125 2.34375 5.78125 2.34375 7.5 5.5 C8.10199219 6.59570312 8.70398438 7.69140625 9.32421875 8.8203125 C9.87722656 9.86960937 10.43023437 10.91890625 11 12 C11.41894531 12.78117187 11.83789062 13.56234375 12.26953125 14.3671875 C15.3474754 20.29251819 17.7559674 25.37370218 16.671875 32.09765625 C15.39277617 35.71929073 13.23724068 37.00785189 10 39 C7.125 39.3125 7.125 39.3125 5 39 C5.66 36.03 6.32 33.06 7 30 C6.21625 30.99 5.4325 31.98 4.625 33 C3.75875 33.99 2.8925 34.98 2 36 C1.34 36 0.68 36 0 36 C-1.32 33.36 -2.64 30.72 -4 28 C-4.2165625 29.11375 -4.2165625 29.11375 -4.4375 30.25 C-4.7159375 31.61125 -4.7159375 31.61125 -5 33 C-5.103125 33.721875 -5.20625 34.44375 -5.3125 35.1875 C-6.25733891 37.67843895 -7.64610686 37.93346558 -10 39 C-11.14842923 37.71064081 -12.29366227 36.41843421 -13.4375 35.125 C-14.07558594 34.40570313 -14.71367188 33.68640625 -15.37109375 32.9453125 C-17.70824906 30.15417738 -18.5625 27.88347897 -18.5625 24.1953125 C-17.50364039 20.06281873 -14.5155879 16.98807771 -11.84765625 13.74609375 C-9.82351562 10.73769869 -9.33086737 8.5765187 -9 5 C-8.01 5.33 -7.02 5.66 -6 6 C-5.3125 8.0625 -5.3125 8.0625 -5 10 C-4.34 10 -3.68 10 -3 10 C-2.01 6.7 -1.02 3.4 0 0 Z M2 3 C1.1971329 4.22967006 0.4332017 5.48484665 -0.3125 6.75 C-2.25481472 9.90696111 -4.07234297 12.65787437 -7 15 C-7.99 15 -8.98 15 -10 15 C-12.53624536 17.32489158 -14.39451713 19.96446783 -16 23 C-16.14441679 27.33250371 -15.73440903 29.13206205 -12.9375 32.4375 C-12.298125 32.953125 -11.65875 33.46875 -11 34 C-10.67 33.01 -10.34 32.02 -10 31 C-9.67 31.66 -9.34 32.32 -9 33 C-8.34 33 -7.68 33 -7 33 C-6.71125 32.05125 -6.4225 31.1025 -6.125 30.125 C-5 27 -5 27 -3 25 C-3 24.01 -3 23.02 -3 22 C-2.34 22 -1.68 22 -1 22 C-1.04125 23.093125 -1.0825 24.18625 -1.125 25.3125 C-1.32074666 29.08892229 -1.32074666 29.08892229 1 32 C1.66 32 2.32 32 3 32 C4.58455866 30.21276059 4.58455866 30.21276059 6.125 28 C6.66382812 27.2575 7.20265625 26.515 7.7578125 25.75 C8.16773437 25.1725 8.57765625 24.595 9 24 C9.0272415 25.41655793 9.04650467 26.83327045 9.0625 28.25 C9.07410156 29.03890625 9.08570312 29.8278125 9.09765625 30.640625 C9.00385306 32.90691002 8.63241063 34.8288895 8 37 C11.72614153 35.88145414 11.72614153 35.88145414 14 33 C15.44805335 21.0845896 10.05009987 12.23652325 3 3 C2.67 3 2.34 3 2 3 Z " fill="#2A2021" transform="translate(86,20)"/>
<path d="M0 0 C2.475 0.495 2.475 0.495 5 1 C5.66 1.99 6.32 2.98 7 4 C7.33 2.68 7.66 1.36 8 0 C9.32 0 10.64 0 12 0 C12.33 3.3 12.66 6.6 13 10 C14.32 6.7 15.64 3.4 17 0 C18.65 0 20.3 0 22 0 C22.83719383 2.29032311 23.6698929 4.58210957 24.5 6.875 C24.73847656 7.52597656 24.97695312 8.17695313 25.22265625 8.84765625 C27 13.7734375 27 13.7734375 27 16 C25.35 16 23.7 16 22 16 C22 15.01 22 14.02 22 13 C20.35 13 18.7 13 17 13 C16.67 13.99 16.34 14.98 16 16 C10.62694301 16.44041451 10.62694301 16.44041451 8 16 C6 13.5 6 13.5 5 11 C4.67 12.65 4.34 14.3 4 16 C2.68 16 1.36 16 0 16 C0 10.72 0 5.44 0 0 Z M19 7 C18.67 7.66 18.34 8.32 18 9 C18.66 9 19.32 9 20 9 C19.67 8.34 19.34 7.68 19 7 Z " fill="#000000" transform="translate(172,159)"/>
<path d="M0 0 C1.60875 -0.04125 3.2175 -0.0825 4.875 -0.125 C5.77992188 -0.14820313 6.68484375 -0.17140625 7.6171875 -0.1953125 C10 0 10 0 12 2 C12.66 1.34 13.32 0.68 14 0 C15.875 -0.30078125 15.875 -0.30078125 18 -0.3125 C18.70125 -0.32925781 19.4025 -0.34601563 20.125 -0.36328125 C21.053125 -0.18345703 21.053125 -0.18345703 22 0 C22.66 0.99 23.32 1.98 24 3 C23.5625 5.125 23.5625 5.125 23 7 C23.33 7.33 23.66 7.66 24 8 C24.25 10.9375 24.25 10.9375 24 14 C20.13724706 16.57516863 18.44015401 15.74002567 14 15 C13.67 15.33 13.34 15.66 13 16 C10.625 16.375 10.625 16.375 8 16 C6.3125 13.5625 6.3125 13.5625 5 11 C4.34 10.67 3.68 10.34 3 10 C3 11.98 3 13.96 3 16 C2.01 16 1.02 16 0 16 C0 10.72 0 5.44 0 0 Z M3 4 C3 4.66 3 5.32 3 6 C4.65 5.67 6.3 5.34 8 5 C8 4.67 8 4.34 8 4 C6.35 4 4.7 4 3 4 Z M17 4 C17.33 4.66 17.66 5.32 18 6 C18.66 5.67 19.32 5.34 20 5 C19.01 4.67 18.02 4.34 17 4 Z M12 6 C11.34 6.66 10.68 7.32 10 8 C10.3185177 10.10820797 10.3185177 10.10820797 11 12 C11.33 11.34 11.66 10.68 12 10 C14.31 10.66 16.62 11.32 19 12 C19.33 11.34 19.66 10.68 20 10 C19.05125 9.71125 18.1025 9.4225 17.125 9.125 C14 8 14 8 12 6 Z " fill="#000000" transform="translate(542,159)"/>
<path d="M0 0 C6.55657381 2.69231292 13.39091772 5.60875604 19 10 C19 10.99 19 11.98 19 13 C17.68 13 16.36 13 15 13 C16.02480469 13.74765625 17.04960937 14.4953125 18.10546875 15.265625 C19.46618862 16.26035814 20.82686331 17.25515308 22.1875 18.25 C22.86103516 18.74113281 23.53457031 19.23226562 24.22851562 19.73828125 C27.88641718 22.41479458 31.48620762 25.13438291 35 28 C34.505 29.485 34.505 29.485 34 31 C28.39 28.03 22.78 25.06 17 22 C17 21.34 17 20.68 17 20 C16.21625 19.773125 15.4325 19.54625 14.625 19.3125 C9.87698375 17.59339067 5.47897448 15.31915279 1 13 C2.32 12.34 3.64 11.68 5 11 C3.59234375 10.15115234 3.59234375 10.15115234 2.15625 9.28515625 C0.93738441 8.54446101 -0.28135935 7.80356526 -1.5 7.0625 C-2.12003906 6.68931641 -2.74007812 6.31613281 -3.37890625 5.93164062 C-4.93629997 4.9818016 -6.4703275 3.99386689 -8 3 C-8 2.67 -8 2.34 -8 2 C-5.36 2 -2.72 2 0 2 C0 1.34 0 0.68 0 0 Z " fill="#EFE804" transform="translate(126,143)"/>
<path d="M0 0 C6.27 0 12.54 0 19 0 C22.52083333 10.5625 22.52083333 10.5625 22 14 C20 16 20 16 17.93701172 16.22705078 C16.69588623 16.21134033 16.69588623 16.21134033 15.4296875 16.1953125 C14.53378906 16.18886719 13.63789062 16.18242188 12.71484375 16.17578125 C11.77769531 16.15902344 10.84054688 16.14226562 9.875 16.125 C8.93011719 16.11597656 7.98523438 16.10695313 7.01171875 16.09765625 C4.67422708 16.07404522 2.33723877 16.04111516 0 16 C0.66 15.34 1.32 14.68 2 14 C2.31991706 11.17129751 2.31991706 11.17129751 2.25 8 C2.25773437 6.39125 2.25773437 6.39125 2.265625 4.75 C2.28027649 1.85637822 2.28027649 1.85637822 0 0 Z " fill="#2C2E2C" transform="translate(76,108)"/>
<path d="M0 0 C2.0625 0.4375 2.0625 0.4375 4 1 C4 2.32 4 3.64 4 5 C3.34 5 2.68 5 2 5 C2 5.99 2 6.98 2 8 C4.97 8 7.94 8 11 8 C10.67 8.66 10.34 9.32 10 10 C7.36 10 4.72 10 2 10 C2.66 11.65 3.32 13.3 4 15 C0.535 17.475 0.535 17.475 -3 20 C-2.34 20.33 -1.68 20.66 -1 21 C-1 21.66 -1 22.32 -1 23 C-2.4774746 23.36116046 -3.95704675 23.71375048 -5.4375 24.0625 C-6.67306641 24.35833984 -6.67306641 24.35833984 -7.93359375 24.66015625 C-8.61550781 24.77230469 -9.29742187 24.88445312 -10 25 C-12.34122199 22.65877801 -11.65470025 18.02336477 -11.74975586 14.87646484 C-11.64946277 11.11030197 -11.17571963 9.21918053 -8.8046875 6.26171875 C-6.28374996 4.29739847 -3.76487869 2.59748546 -1 1 C-0.67 0.67 -0.34 0.34 0 0 Z " fill="#FBF107" transform="translate(73,117)"/>
<path d="M0 0 C3.6970912 1.40489466 7.14747703 3.05503922 10.625 4.9375 C11.56601562 5.44152344 12.50703125 5.94554687 13.4765625 6.46484375 C16 8 16 8 17.44921875 9.4921875 C19.72162373 11.70162912 22.34589619 12.81253041 25.1875 14.1875 C26.27417969 14.71730469 27.36085938 15.24710938 28.48046875 15.79296875 C29.72763672 16.39044922 29.72763672 16.39044922 31 17 C30.34 17.66 29.68 18.32 29 19 C29.86625 19.56589844 30.7325 20.13179687 31.625 20.71484375 C32.75011962 21.4555475 33.87511316 22.19644279 35 22.9375 C35.57234375 23.31068359 36.1446875 23.68386719 36.734375 24.06835938 C38.17385729 25.01944589 39.58914489 26.00694276 41 27 C41 27.33 41 27.66 41 28 C39.35 28 37.7 28 36 28 C36 28.66 36 29.32 36 30 C28.54191589 27.92151754 22.14748482 24.76860972 16 20 C16 19.34 16 18.68 16 18 C16.99 17.67 17.98 17.34 19 17 C17.96359375 16.24074219 16.9271875 15.48148438 15.859375 14.69921875 C14.48957483 13.6953241 13.11978363 12.69141721 11.75 11.6875 C11.06808594 11.18798828 10.38617188 10.68847656 9.68359375 10.17382812 C8.36571286 9.20780863 7.04987456 8.23899491 5.73632812 7.26708984 C4.35208432 6.25693443 2.93835056 5.28722592 1.515625 4.33203125 C1.01546875 3.89246094 0.5153125 3.45289063 0 3 C0 2.01 0 1.02 0 0 Z " fill="#D8D308" transform="translate(12,58)"/>
<path d="M0 0 C1.53363229 13.88789238 1.53363229 13.88789238 -2.2265625 19.06640625 C-4.7239371 21.25776452 -7.2067646 23.20434867 -10 25 C-10.99 24.67 -11.98 24.34 -13 24 C-13.33 22.35 -13.66 20.7 -14 19 C-16.64 18.34 -19.28 17.68 -22 17 C-22 16.67 -22 16.34 -22 16 C-20.4221875 15.7525 -20.4221875 15.7525 -18.8125 15.5 C-15.28637639 14.53120644 -14.09506072 13.11459791 -12.25 10 C-11.88390625 9.29875 -11.5178125 8.5975 -11.140625 7.875 C-10 6 -10 6 -7 4 C-7.33 3.01 -7.66 2.02 -8 1 C-2.25 -1.125 -2.25 -1.125 0 0 Z " fill="#F8EF07" transform="translate(110,89)"/>
<path d="M0 0 C-2.30283254 2.54131358 -4.67313793 4.07110295 -7.6875 5.6875 C-8.89986328 6.34298828 -8.89986328 6.34298828 -10.13671875 7.01171875 C-10.75160156 7.33785156 -11.36648437 7.66398438 -12 8 C-11.34 8.33 -10.68 8.66 -10 9 C-10 9.99 -10 10.98 -10 12 C-13.6633093 13.99913541 -17.32951816 15.99281298 -20.99853516 17.98144531 C-22.24674681 18.65898096 -23.49414808 19.33801175 -24.74072266 20.01855469 C-26.53077554 20.99546501 -28.32365648 21.96699348 -30.1171875 22.9375 C-31.19597168 23.52402344 -32.27475586 24.11054688 -33.38623047 24.71484375 C-36 26 -36 26 -38 26 C-36.40526038 21.53472907 -32.93096666 19.14492157 -29.375 16.25 C-28.76398437 15.74339844 -28.15296875 15.23679688 -27.5234375 14.71484375 C-26.02070947 13.4703971 -24.51102533 12.23435872 -23 11 C-23.33 9.68 -23.66 8.36 -24 7 C-19.4220623 4.2906083 -14.91717036 2.02471721 -10 0 C-6.7169902 -1.6415049 -3.57454967 -0.51888624 0 0 Z " fill="#EBE505" transform="translate(56,146)"/>
<path d="M0 0 C4.29 0 8.58 0 13 0 C12.85936865 2.29199177 12.71234057 4.58359186 12.5625 6.875 C12.48128906 8.15117187 12.40007812 9.42734375 12.31640625 10.7421875 C12 14 12 14 11 16 C10.69208131 18.33077343 10.49104726 20.66241896 10.28125 23.00390625 C10 25 10 25 9 26 C6.5 26.125 6.5 26.125 4 26 C2.46573977 24.46573977 2.56558372 22.82735928 2.24609375 20.703125 C2.11396484 19.8265625 1.98183594 18.95 1.84570312 18.046875 C1.71099609 17.12390625 1.57628906 16.2009375 1.4375 15.25 C1.22963867 13.88875 1.22963867 13.88875 1.01757812 12.5 C0.38356554 8.22744231 0 4.35012844 0 0 Z " fill="#221F1F" transform="translate(81,148)"/>
<path d="M0 0 C1.32 0 2.64 0 4 0 C4 3.96 4 7.92 4 12 C5.98 11.67 7.96 11.34 10 11 C11.32 7.37 12.64 3.74 14 0 C15.65 0 17.3 0 19 0 C23.40774487 10.37357631 23.40774487 10.37357631 24 16 C22.68 16 21.36 16 20 16 C19.67 15.34 19.34 14.68 19 14 C16.47266765 13.34444881 16.47266765 13.34444881 14 13 C14 13.99 14 14.98 14 16 C9.38 16 4.76 16 0 16 C0 10.72 0 5.44 0 0 Z M16 7 C16 7.66 16 8.32 16 9 C16.66 8.67 17.32 8.34 18 8 C17.34 7.67 16.68 7.34 16 7 Z " fill="#000000" transform="translate(402,159)"/>
<path d="M0 0 C2.44790217 1.79547622 3.39859416 3.34939723 5 6 C4.39671875 5.79503906 3.7934375 5.59007813 3.171875 5.37890625 C2.37265625 5.10949219 1.5734375 4.84007813 0.75 4.5625 C-0.03890625 4.29566406 -0.8278125 4.02882813 -1.640625 3.75390625 C-3.74821988 3.08045292 -5.84753973 2.50849405 -8 2 C-7.67 2.99 -7.34 3.98 -7 5 C-4.73547192 5.95476308 -4.73547192 5.95476308 -2.0625 6.5625 C2.8011583 7.8011583 2.8011583 7.8011583 5 10 C5.375 12.4375 5.375 12.4375 5 15 C2.59093953 17.47956955 1.24309487 17.97798054 -2.234375 18.29296875 C-3.39453125 18.25816406 -4.5546875 18.22335938 -5.75 18.1875 C-6.92046875 18.16042969 -8.0909375 18.13335937 -9.296875 18.10546875 C-10.18890625 18.07066406 -11.0809375 18.03585938 -12 18 C-13.98 14.535 -13.98 14.535 -16 11 C-12 13 -12 13 -10.25 14.0625 C-6.89646338 15.45980692 -3.60966975 15.63903303 0 16 C-1.61793975 12.87589419 -1.61793975 12.87589419 -4.0234375 12.41015625 C-4.79945312 12.29542969 -5.57546875 12.18070313 -6.375 12.0625 C-9.46665766 11.45414156 -10.97729759 11.01567547 -13.625 9.1875 C-15 7 -15 7 -14.9375 4.375 C-12.54128394 -1.69541402 -5.47650477 -0.9593877 0 0 Z " fill="#2C292A" transform="translate(91,86)"/>
<path d="M0 0 C2.93902349 -0.13481759 5.87189559 -0.23399416 8.8125 -0.3125 C10.06256836 -0.3753418 10.06256836 -0.3753418 11.33789062 -0.43945312 C13.66145599 -0.48611106 15.72570306 -0.48493084 18 0 C20.07421875 2.51953125 20.07421875 2.51953125 21 5 C19.9790625 4.5359375 19.9790625 4.5359375 18.9375 4.0625 C15.63034088 2.86629351 12.48454122 2.40994603 9 2 C9 3.65 9 5.3 9 7 C10.65 6.67 12.3 6.34 14 6 C14 7.65 14 9.3 14 11 C12.35 10.67 10.7 10.34 9 10 C9 11.65 9 13.3 9 15 C13.83628305 14.00956295 18.47618873 13.04301154 23 11 C21.84826645 13.46800047 20.95216435 15.04783565 19 17 C17.02880859 17.22705078 17.02880859 17.22705078 14.6484375 17.1953125 C13.79765625 17.18886719 12.946875 17.18242187 12.0703125 17.17578125 C10.73613281 17.15064453 10.73613281 17.15064453 9.375 17.125 C8.02921875 17.11146484 8.02921875 17.11146484 6.65625 17.09765625 C4.43723414 17.0740497 2.21874923 17.0411231 0 17 C0.32452148 16.39099854 0.64904297 15.78199707 0.98339844 15.15454102 C2.1923734 12.5922922 2.26702164 10.75883671 2.25 7.9375 C2.25773437 6.65166016 2.25773437 6.65166016 2.265625 5.33984375 C2.14992488 2.72947202 2.14992488 2.72947202 0 0 Z " fill="#2A2728" transform="translate(76,128)"/>
<path d="M0 0 C0.66 0.66 1.32 1.32 2 2 C-3.31835035 6.90421651 -8.54759715 11.6291499 -14.6015625 15.61328125 C-15.06304687 16.07089844 -15.52453125 16.52851562 -16 17 C-16 18.32 -16 19.64 -16 21 C-17.53125 22.703125 -17.53125 22.703125 -19.5 24.25 C-20.1496875 24.77078125 -20.799375 25.2915625 -21.46875 25.828125 C-22.22671875 26.40820312 -22.22671875 26.40820312 -23 27 C-23.66 26.67 -24.32 26.34 -25 26 C-24.319375 25.443125 -23.63875 24.88625 -22.9375 24.3125 C-22.298125 23.549375 -21.65875 22.78625 -21 22 C-21.14025199 19.29294488 -21.14025199 19.29294488 -22 17 C-21.01 16.67 -20.02 16.34 -19 16 C-19 15.34 -19 14.68 -19 14 C-21.64 14.99 -24.28 15.98 -27 17 C-27 17.99 -27 18.98 -27 20 C-30.75 21.125 -30.75 21.125 -33 20 C-32 17 -32 17 -28.96484375 15.2734375 C-27.62649369 14.6320038 -26.28369751 13.99979623 -24.9375 13.375 C-18.83767727 10.44485684 -12.88303517 7.34516379 -7 4 C-6.2999585 3.60216309 -5.59991699 3.20432617 -4.87866211 2.79443359 C-3.25065806 1.86607611 -1.6250411 0.93353425 0 0 Z " fill="#D8D409" transform="translate(156,56)"/>
<path d="M0 0 C3.63 0 7.26 0 11 0 C11.144375 1.051875 11.28875 2.10375 11.4375 3.1875 C11.89522807 6.84139466 11.89522807 6.84139466 12.75 9.6875 C13 12 13 12 11.83984375 14.12890625 C10 16 10 16 7.51953125 16.390625 C5.01302083 16.26041667 2.50651042 16.13020833 0 16 C0 10.72 0 5.44 0 0 Z M4 4 C4 4.66 4 5.32 4 6 C5.32 5.67 6.64 5.34 8 5 C6.68 4.67 5.36 4.34 4 4 Z M4 10 C4 10.66 4 11.32 4 12 C5.32 12 6.64 12 8 12 C8 11.34 8 10.68 8 10 C6.68 10 5.36 10 4 10 Z " fill="#000000" transform="translate(388,159)"/>
<path d="M0 0 C1.65 0 3.3 0 5 0 C5.66 1.32 6.32 2.64 7 4 C7.33 2.68 7.66 1.36 8 0 C9.32 0 10.64 0 12 0 C12 5.28 12 10.56 12 16 C10.68 16 9.36 16 8 16 C6.25 13.5 6.25 13.5 5 11 C4.67 12.65 4.34 14.3 4 16 C2.68 16 1.36 16 0 16 C0 10.72 0 5.44 0 0 Z " fill="#000000" transform="translate(503,159)"/>
<path d="M0 0 C5.28 0 10.56 0 16 0 C16 5.28 16 10.56 16 16 C14.68 16 13.36 16 12 16 C12 12.04 12 8.08 12 4 C10.68 4 9.36 4 8 4 C8 7.96 8 11.92 8 16 C6.68 16 5.36 16 4 16 C4 12.04 4 8.08 4 4 C2.68 4 1.36 4 0 4 C0 2.68 0 1.36 0 0 Z " fill="#000000" transform="translate(196,159)"/>
<path d="M0 0 C1.875 0.33984375 1.875 0.33984375 3.875 1.83984375 C5.30304058 5.40994519 5.5658363 8.55188742 4.875 12.33984375 C3.25 14.83984375 3.25 14.83984375 0.875 16.33984375 C-2.69216403 16.93437109 -4.39951464 16.77895331 -7.5 14.90234375 C-9.82569294 11.23490488 -9.99172198 7.57975397 -9.125 3.33984375 C-6.54411317 -0.19605013 -4.13175 -0.18987822 0 0 Z M-4.125 4.33984375 C-5.42133621 5.4062949 -5.42133621 5.4062949 -5.1875 7.90234375 C-5.166875 8.70671875 -5.14625 9.51109375 -5.125 10.33984375 C-3.145 11.32984375 -3.145 11.32984375 -1.125 12.33984375 C1.16228734 10.50100494 1.16228734 10.50100494 1 7.71484375 C0.95875 6.93109375 0.9175 6.14734375 0.875 5.33984375 C-0.78114657 4.95765608 -2.44957024 4.62589273 -4.125 4.33984375 Z " fill="#000000" transform="translate(366.125,158.66015625)"/>
<path d="M0 0 C3.63 0 7.26 0 11 0 C11 1.32 11 2.64 11 4 C8.69 4 6.38 4 4 4 C4 4.66 4 5.32 4 6 C6.31 6 8.62 6 11 6 C11 7.32 11 8.64 11 10 C8.69 10 6.38 10 4 10 C4 10.66 4 11.32 4 12 C6.64 12 9.28 12 12 12 C12 13.32 12 14.64 12 16 C8.04 16 4.08 16 0 16 C0 10.72 0 5.44 0 0 Z " fill="#000000" transform="translate(529,159)"/>
<path d="M0 0 C0.66 0 1.32 0 2 0 C0.375 5.75 0.375 5.75 -3 8 C-2.38125 8.350625 -1.7625 8.70125 -1.125 9.0625 C2.24284393 12.13318123 2.8019625 15.71431715 3.1875 20.1640625 C3.25 22.3125 3.25 22.3125 3 26 C1 28 1 28 -1.24658203 28.22705078 C-2.15778809 28.21657715 -3.06899414 28.20610352 -4.0078125 28.1953125 C-4.99394531 28.18886719 -5.98007813 28.18242188 -6.99609375 28.17578125 C-8.54490234 28.15064453 -8.54490234 28.15064453 -10.125 28.125 C-11.16527344 28.11597656 -12.20554687 28.10695313 -13.27734375 28.09765625 C-15.85179092 28.07403747 -18.42578212 28.04110149 -21 28 C-21 27.01 -21 26.02 -21 25 C-20.34 24.67 -19.68 24.34 -19 24 C-19 20.7 -19 17.4 -19 14 C-19.99 13.67 -20.98 13.34 -22 13 C-21.67 11.68 -21.34 10.36 -21 9 C-19.68 9 -18.36 9 -17 9 C-17 8.34 -17 7.68 -17 7 C-13.67692971 6.35159604 -10.7097928 6.00491877 -7.3125 6.0625 C-3.85862458 6.29495905 -3.85862458 6.29495905 -1 4 C-0.27617533 1.94074861 -0.27617533 1.94074861 0 0 Z M-20 11 C-19.34 11.66 -18.68 12.32 -18 13 C-17.734375 15.75 -17.734375 15.75 -17.75 19 C-17.74484375 20.0725 -17.7396875 21.145 -17.734375 22.25 C-18 25 -18 25 -20 27 C-16.70840684 27.05790353 -13.41694397 27.09356261 -10.125 27.125 C-8.71927734 27.15013672 -8.71927734 27.15013672 -7.28515625 27.17578125 C-6.38925781 27.18222656 -5.49335937 27.18867187 -4.5703125 27.1953125 C-3.32918701 27.21102295 -3.32918701 27.21102295 -2.06298828 27.22705078 C0.22398157 27.19302257 0.22398157 27.19302257 2 25 C1.61013988 20.0292835 0.38732567 15.85563983 -1 11 C-7.27 11 -13.54 11 -20 11 Z " fill="#B4C8B2" transform="translate(96,97)"/>
<path d="M0 0 C3.63 0 7.26 0 11 0 C11 1.32 11 2.64 11 4 C8.69 4 6.38 4 4 4 C4 4.66 4 5.32 4 6 C6.31 6 8.62 6 11 6 C11 7.32 11 8.64 11 10 C8.69 10 6.38 10 4 10 C4 10.66 4 11.32 4 12 C6.31 12 8.62 12 11 12 C11 13.32 11 14.64 11 16 C7.37 16 3.74 16 0 16 C0 10.72 0 5.44 0 0 Z " fill="#000000" transform="translate(517,159)"/>
<path d="M0 0 C1.32 0 2.64 0 4 0 C4.33 0.66 4.66 1.32 5 2 C5.66 1.34 6.32 0.68 7 0 C10.125 -0.125 10.125 -0.125 13 0 C12.2575 1.010625 11.515 2.02125 10.75 3.0625 C9.55724373 4.93340763 9.55724373 4.93340763 9 7 C9.89010217 9.78156929 11.28698131 11.57322352 13 14 C13 14.66 13 15.32 13 16 C11.35 16 9.7 16 8 16 C7.34 14.02 6.68 12.04 6 10 C5.34 10 4.68 10 4 10 C4 11.98 4 13.96 4 16 C2.68 16 1.36 16 0 16 C0 10.72 0 5.44 0 0 Z " fill="#000000" transform="translate(440,159)"/>
<path d="M0 0 C1.9375 1.375 1.9375 1.375 3 3 C3 3.66 3 4.32 3 5 C-0.05263664 5.98120464 -1.94736336 5.98120464 -5 5 C-5 6.65 -5 8.3 -5 10 C-2.3333581 11.33332095 -0.83319697 10.67102033 2 10 C2 11.32 2 12.64 2 14 C-1 16 -1 16 -4.5625 15.8125 C-8 15 -8 15 -10 12 C-10.30078125 9.84375 -10.30078125 9.84375 -10.3125 7.5 C-10.32925781 6.7265625 -10.34601563 5.953125 -10.36328125 5.15625 C-9.38644151 -0.64176654 -5.06789133 -0.54298836 0 0 Z " fill="#000000" transform="translate(436,159)"/>
<path d="M0 0 C6.27 0 12.54 0 19 0 C22.52083333 10.5625 22.52083333 10.5625 22 14 C20 16 20 16 16.3046875 16.1953125 C14.82799892 16.182009 13.35137642 16.15814835 11.875 16.125 C11.12089844 16.11597656 10.36679688 16.10695313 9.58984375 16.09765625 C7.72642746 16.0740687 5.86317407 16.03819719 4 16 C4 15.67 4 15.34 4 15 C7.63 15 11.26 15 15 15 C15 13.02 15 11.04 15 9 C14.01 8.67 13.02 8.34 12 8 C12.33 6.02 12.66 4.04 13 2 C8.71 1.67 4.42 1.34 0 1 C0 0.67 0 0.34 0 0 Z " fill="#201C1E" transform="translate(76,108)"/>
<path d="M0 0 C3.3 0 6.6 0 10 0 C10 1.32 10 2.64 10 4 C8.02 4 6.04 4 4 4 C4 4.66 4 5.32 4 6 C5.65 6 7.3 6 9 6 C9 7.32 9 8.64 9 10 C7.35 10 5.7 10 4 10 C4 11.98 4 13.96 4 16 C2.68 16 1.36 16 0 16 C0 10.72 0 5.44 0 0 Z " fill="#000000" transform="translate(372,159)"/>
<path d="M0 0 C2.3125 1.25 2.3125 1.25 3.3125 2.25 C3.4375 5.75 3.4375 5.75 3.3125 9.25 C1.42121658 11.14128342 -1.25817726 10.4866852 -3.77734375 10.578125 C-4.40769531 10.46984375 -5.03804688 10.3615625 -5.6875 10.25 C-7.6875 7.25 -7.6875 7.25 -7.5625 4.75 C-6.6875 2.25 -6.6875 2.25 -4.9375 0.3125 C-2.6875 -0.75 -2.6875 -0.75 0 0 Z M-4.6875 3.25 C-3.6875 7.25 -3.6875 7.25 -3.6875 7.25 Z " fill="#231F20" transform="translate(104.6875,164.75)"/>
<path d="M0 0 C3.32134957 1.14171392 6.29652203 2.65898368 9.3125 4.4375 C10.00988281 4.84871094 10.70726562 5.25992188 11.42578125 5.68359375 C11.94527344 6.11800781 12.46476563 6.55242187 13 7 C13 7.99 13 8.98 13 10 C11.68 10 10.36 10 9 10 C10.53720703 11.12148437 10.53720703 11.12148437 12.10546875 12.265625 C13.46618862 13.26035814 14.82686331 14.25515308 16.1875 15.25 C16.86103516 15.74113281 17.53457031 16.23226562 18.22851562 16.73828125 C21.88641718 19.41479458 25.48620762 22.13438291 29 25 C28.67 25.99 28.34 26.98 28 28 C25.69 26.68 23.38 25.36 21 24 C21 23.01 21 22.02 21 21 C18.74136794 19.20724766 16.51812057 17.59229157 14.125 16 C12.83263143 15.12989047 11.54343106 14.25505229 10.2578125 13.375 C9.6817627 12.99085938 9.10571289 12.60671875 8.51220703 12.2109375 C7 11 7 11 5 8 C5.99 7.67 6.98 7.34 8 7 C7.13375 6.36771484 7.13375 6.36771484 6.25 5.72265625 C5.5075 5.17480469 4.765 4.62695312 4 4.0625 C3.2575 3.51722656 2.515 2.97195312 1.75 2.41015625 C1.1725 1.94480469 0.595 1.47945312 0 1 C0 0.67 0 0.34 0 0 Z " fill="#353120" transform="translate(132,146)"/>
<path d="M0 0 C0.66 0.33 1.32 0.66 2 1 C-1.96 4.465 -1.96 4.465 -6 8 C-4.31970703 7.11634766 -4.31970703 7.11634766 -2.60546875 6.21484375 C-1.13308275 5.45520511 0.33958845 4.6961191 1.8125 3.9375 C2.55048828 3.54755859 3.28847656 3.15761719 4.04882812 2.75585938 C4.76103516 2.39169922 5.47324219 2.02753906 6.20703125 1.65234375 C6.8616333 1.31195068 7.51623535 0.97155762 8.19067383 0.62084961 C10 0 10 0 13 1 C9.3366907 2.99913541 5.67048184 4.99281298 2.00146484 6.98144531 C0.75325319 7.65898096 -0.49414808 8.33801175 -1.74072266 9.01855469 C-3.53077554 9.99546501 -5.32365648 10.96699348 -7.1171875 11.9375 C-8.19597168 12.52402344 -9.27475586 13.11054688 -10.38623047 13.71484375 C-13 15 -13 15 -15 15 C-13.40526038 10.53472907 -9.93096666 8.14492157 -6.375 5.25 C-5.76398437 4.74339844 -5.15296875 4.23679688 -4.5234375 3.71484375 C-3.02070947 2.4703971 -1.51102533 1.23435872 0 0 Z " fill="#363120" transform="translate(33,157)"/>
<path d="M0 0 C0.66 0.33 1.32 0.66 2 1 C2 2.65 2 4.3 2 6 C2.99 5.34 3.98 4.68 5 4 C7.6875 4.375 7.6875 4.375 10 5 C8.7508258 8.45925163 7.32472205 11.14693203 5 14 C4.34 13.67 3.68 13.34 3 13 C4.65 10.69 6.3 8.38 8 6 C6.989375 6.66 5.97875 7.32 4.9375 8 C1.21937109 10.15499716 -1.68915491 10.35190572 -6 10 C-6 8.35 -6 6.7 -6 5 C-3.83125748 5.50603992 -2.00032373 5.99983813 0 7 C0 4.69 0 2.38 0 0 Z " fill="#FBFBFB" transform="translate(91,133)"/>
<path d="M0 0 C3.95906817 1.43308135 7.28718181 3.33141949 10.8125 5.625 C11.78832031 6.25664062 12.76414063 6.88828125 13.76953125 7.5390625 C14.50558594 8.02117187 15.24164063 8.50328125 16 9 C15.01 9.66 14.02 10.32 13 11 C17.62 13.31 22.24 15.62 27 18 C23.51371731 19.16209423 23.13629782 18.88616059 19.98828125 17.34765625 C19.23095703 16.98349609 18.47363281 16.61933594 17.69335938 16.24414062 C16.90767578 15.85419922 16.12199219 15.46425781 15.3125 15.0625 C14.51521484 14.67642578 13.71792969 14.29035156 12.89648438 13.89257812 C10.92653557 12.93709398 8.96150061 11.97267894 7 11 C7 10.01 7 9.02 7 8 C7.66 7.67 8.32 7.34 9 7 C8.3503125 6.57847656 7.700625 6.15695313 7.03125 5.72265625 C5.77828125 4.90087891 5.77828125 4.90087891 4.5 4.0625 C3.6646875 3.51722656 2.829375 2.97195312 1.96875 2.41015625 C1.3190625 1.94480469 0.669375 1.47945312 0 1 C0 0.67 0 0.34 0 0 Z " fill="#312D21" transform="translate(116,145)"/>
<path d="M0 0 C0.556875 0.28875 1.11375 0.5775 1.6875 0.875 C4.08494645 2.0413253 6.51596939 3.0339881 9 4 C9 5.66666667 9 7.33333333 9 9 C10.29233607 10.37310707 11.62437146 11.71034824 13 13 C12.21625 12.649375 11.4325 12.29875 10.625 11.9375 C9.75875 11.628125 8.8925 11.31875 8 11 C7.01 11.495 7.01 11.495 6 12 C5.38125 11.360625 4.7625 10.72125 4.125 10.0625 C2.17402388 7.96116416 2.17402388 7.96116416 0 7 C0 4.69 0 2.38 0 0 Z " fill="#CBD110" transform="translate(119,133)"/>
<path d="M0 0 C0.56460938 0.31195313 1.12921875 0.62390625 1.7109375 0.9453125 C4.73233648 2.33742466 7.70777721 2.73177917 10.9765625 3.2421875 C13 4 13 4 14.2734375 6.0703125 C14.51320313 6.70710938 14.75296875 7.34390625 15 8 C8.53673535 8.45356243 5.39068413 7.59378942 0 4 C0.99 5.32 1.98 6.64 3 8 C2.67 8.66 2.34 9.32 2 10 C-0.0625 7.75 -0.0625 7.75 -2 5 C-1.81190541 2.74286486 -1.60454441 1.60454441 0 0 Z " fill="#DFE4E1" transform="translate(76,94)"/>
<path d="M0 0 C4.86872054 0.59559106 8.59328841 2.72477415 12.8125 5.0625 C13.50537109 5.43955078 14.19824219 5.81660156 14.91210938 6.20507812 C16.61128985 7.13083852 18.30609425 8.06462312 20 9 C19.67 9.99 19.34 10.98 19 12 C22.465 14.475 22.465 14.475 26 17 C25.34 17.33 24.68 17.66 24 18 C20.04 15.36 16.08 12.72 12 10 C12.33 9.34 12.66 8.68 13 8 C8.71 5.69 4.42 3.38 0 1 C0 0.67 0 0.34 0 0 Z " fill="#433F1F" transform="translate(28,67)"/>
<path d="M0 0 C1.32 0 2.64 0 4 0 C4 5.28 4 10.56 4 16 C2.68 16 1.36 16 0 16 C0 10.72 0 5.44 0 0 Z " fill="#000000" transform="translate(498,159)"/>
<path d="M0 0 C1.32 0 2.64 0 4 0 C4 5.28 4 10.56 4 16 C2.68 16 1.36 16 0 16 C0 10.72 0 5.44 0 0 Z " fill="#000000" transform="translate(311,159)"/>
<path d="M0 0 C3.25855755 1.21914998 5.8006922 3.28952094 8.515625 5.41015625 C9.06992188 5.83490234 9.62421875 6.25964844 10.1953125 6.69726562 C11.55651911 7.74163966 12.91168333 8.79388089 14.265625 9.84765625 C11.7988605 10.73102462 10.62703128 10.97889685 8.125 10.0703125 C7.42890625 9.68746094 6.7328125 9.30460938 6.015625 8.91015625 C5.30921875 8.52988281 4.6028125 8.14960938 3.875 7.7578125 C3.34390625 7.45746094 2.8128125 7.15710938 2.265625 6.84765625 C2.265625 6.18765625 2.265625 5.52765625 2.265625 4.84765625 C0.285625 4.18765625 -1.694375 3.52765625 -3.734375 2.84765625 C-3.734375 2.18765625 -3.734375 1.52765625 -3.734375 0.84765625 C-1.734375 -0.15234375 -1.734375 -0.15234375 0 0 Z " fill="#E9E405" transform="translate(140.734375,158.15234375)"/>
<path d="M0 0 C3.79049707 1.42749981 7.27122456 3.16236542 10.8125 5.125 C12.27623047 5.93324219 12.27623047 5.93324219 13.76953125 6.7578125 C14.50558594 7.16773437 15.24164063 7.57765625 16 8 C15.01 8.66 14.02 9.32 13 10 C13.99 11.485 13.99 11.485 15 13 C12.0292809 11.61765196 9.53050974 9.99846608 6.9375 8 C4.65654536 6.24878722 2.39613223 4.59742149 0 3 C0 2.01 0 1.02 0 0 Z " fill="#67621A" transform="translate(12,58)"/>
<path d="M0 0 C0.66 0.33 1.32 0.66 2 1 C-1.75 4 -1.75 4 -4 4 C-4 4.66 -4 5.32 -4 6 C-3.34 6.33 -2.68 6.66 -2 7 C-2 7.99 -2 8.98 -2 10 C-1.34 10.33 -0.68 10.66 0 11 C-1.78614318 12.03046722 -3.57910018 13.04913236 -5.375 14.0625 C-6.37273438 14.63097656 -7.37046875 15.19945312 -8.3984375 15.78515625 C-9.25695312 16.18605469 -10.11546875 16.58695313 -11 17 C-11.66 16.67 -12.32 16.34 -13 16 C-12.43410156 15.51789063 -11.86820313 15.03578125 -11.28515625 14.5390625 C-10.18494141 13.59160156 -10.18494141 13.59160156 -9.0625 12.625 C-8.33160156 11.99851563 -7.60070312 11.37203125 -6.84765625 10.7265625 C-4.91619094 9.12252286 -4.91619094 9.12252286 -4 7 C-4.99 7 -5.98 7 -7 7 C-7 6.01 -7 5.02 -7 4 C-1.7265625 0.77734375 -1.7265625 0.77734375 0 0 Z " fill="#E8E406" transform="translate(39,149)"/>
<path d="M0 0 C0.33 0 0.66 0 1 0 C1 1.65 1 3.3 1 5 C5.83628305 4.00956295 10.47618873 3.04301154 15 1 C13.84826645 3.46800047 12.95216435 5.04783565 11 7 C9.02880859 7.22705078 9.02880859 7.22705078 6.6484375 7.1953125 C5.37226562 7.18564453 5.37226562 7.18564453 4.0703125 7.17578125 C2.73613281 7.15064453 2.73613281 7.15064453 1.375 7.125 C0.02921875 7.11146484 0.02921875 7.11146484 -1.34375 7.09765625 C-3.56276586 7.0740497 -5.78125077 7.0411231 -8 7 C-7.67 6.34 -7.34 5.68 -7 5 C-4.69 5.33 -2.38 5.66 0 6 C0 4.02 0 2.04 0 0 Z " fill="#423F40" transform="translate(84,138)"/>
<path d="M0 0 C0.66 0.33 1.32 0.66 2 1 C1.15695313 1.53109375 0.31390625 2.0621875 -0.5546875 2.609375 C-1.65039062 3.31578125 -2.74609375 4.0221875 -3.875 4.75 C-4.96554688 5.44609375 -6.05609375 6.1421875 -7.1796875 6.859375 C-9.81942419 8.86294246 -10.91122028 9.94039117 -12 13 C-13.98 12.34 -15.96 11.68 -18 11 C-18 10.01 -18 9.02 -18 8 C-17.030625 7.95875 -16.06125 7.9175 -15.0625 7.875 C-9.86627293 7.17510003 -6.15619611 3.97959477 -2 1 C-1.34 0.67 -0.68 0.34 0 0 Z " fill="#316E3B" transform="translate(123,77)"/>
<path d="M0 0 C0.66 0.66 1.32 1.32 2 2 C0.41856529 3.43958847 -1.16522779 4.87658645 -2.75 6.3125 C-3.63171875 7.11300781 -4.5134375 7.91351563 -5.421875 8.73828125 C-7.55449328 10.60916911 -9.70187943 12.34084286 -12 14 C-12.66 13.67 -13.32 13.34 -14 13 C-11.69 11.02 -9.38 9.04 -7 7 C-8.65 7.33 -10.3 7.66 -12 8 C-9.69716746 5.45868642 -7.32686207 3.92889705 -4.3125 2.3125 C-3.50425781 1.87550781 -2.69601563 1.43851563 -1.86328125 0.98828125 C-1.24839844 0.66214844 -0.63351563 0.33601563 0 0 Z " fill="#2F2C21" transform="translate(156,56)"/>
<path d="M0 0 C6.625 -0.25 6.625 -0.25 10 2 C10 2.66 10 3.32 10 4 C10.66 4 11.32 4 12 4 C11.67 4.66 11.34 5.32 11 6 C9.35 5.01 7.7 4.02 6 3 C6 5.31 6 7.62 6 10 C5.34 9.67 4.68 9.34 4 9 C4.33 7.35 4.66 5.7 5 4 C3.35 4.33 1.7 4.66 0 5 C0 3.35 0 1.7 0 0 Z M2 1 C2.33 1.66 2.66 2.32 3 3 C3.33 2.34 3.66 1.68 4 1 C3.34 1 2.68 1 2 1 Z " fill="#E5E5E5" transform="translate(85,130)"/>
<path d="M0 0 C4.97306516 0.49730652 8.63799813 1.55302334 13 4 C10.58959839 5.53690745 9.49917715 6.09752136 6.640625 5.5390625 C5.85171875 5.23742187 5.0628125 4.93578125 4.25 4.625 C3.05117187 4.18027344 3.05117187 4.18027344 1.828125 3.7265625 C1.22484375 3.48679687 0.6215625 3.24703125 0 3 C0 2.01 0 1.02 0 0 Z " fill="#E0DFE0" transform="translate(83,88)"/>
<path d="M0 0 C1.98 0 3.96 0 6 0 C6.38218767 1.65614657 6.71395102 3.32457024 7 5 C6 6 6 6 2.9375 6.0625 C1.4834375 6.0315625 1.4834375 6.0315625 0 6 C0 4.02 0 2.04 0 0 Z " fill="#2FA853" transform="translate(85,116)"/>
<path d="M0 0 C0.66 0.33 1.32 0.66 2 1 C-1.63 2.98 -5.26 4.96 -9 7 C-9 7.99 -9 8.98 -9 10 C-12.75 11.125 -12.75 11.125 -15 10 C-13.7819075 6.34572251 -12.36175201 5.86868864 -9.03320312 4.19921875 C-8.05770508 3.72935547 -8.05770508 3.72935547 -7.0625 3.25 C-6.41603516 2.92128906 -5.76957031 2.59257813 -5.10351562 2.25390625 C-3.43499444 1.43264037 -1.71939715 0.70860004 0 0 Z " fill="#332E21" transform="translate(138,66)"/>
<path d="M0 0 C0.66 0.33 1.32 0.66 2 1 C-2.95 3.97 -2.95 3.97 -8 7 C-7.67 7.99 -7.34 8.98 -7 10 C-8.32 10.33 -9.64 10.66 -11 11 C-11 10.34 -11 9.68 -11 9 C-11.99 8.67 -12.98 8.34 -14 8 C-11.7136988 6.63597957 -9.42178251 5.28365726 -7.125 3.9375 C-6.47402344 3.54755859 -5.82304688 3.15761719 -5.15234375 2.75585938 C-3.46934275 1.77555467 -1.73703801 0.88101568 0 0 Z " fill="#353121" transform="translate(57,146)"/>
<path d="M0 0 C0.66 0.33 1.32 0.66 2 1 C0.35 2.65 -1.3 4.3 -3 6 C-2.34 6.66 -1.68 7.32 -1 8 C-3.31 10.31 -5.62 12.62 -8 15 C-8 12 -8 12 -6.5 10.3125 C-6.005 9.879375 -5.51 9.44625 -5 9 C-5.99 8.34 -6.98 7.68 -8 7 C-5.36 4.69 -2.72 2.38 0 0 Z " fill="#2E2B22" transform="translate(128,84)"/>
<path d="M0 0 C-0.47050781 0.38671875 -0.94101563 0.7734375 -1.42578125 1.171875 C-4.6817612 3.89530336 -7.65453533 6.41281874 -10 10 C-10.66 9.67 -11.32 9.34 -12 9 C-11.505 8.1028125 -11.505 8.1028125 -11 7.1875 C-9.79212012 4.94613529 -9.79212012 4.94613529 -10 2 C-8.71211992 1.46987262 -7.41953322 0.9511671 -6.125 0.4375 C-5.40570313 0.14746094 -4.68640625 -0.14257812 -3.9453125 -0.44140625 C-2 -1 -2 -1 0 0 Z " fill="#A49F11" transform="translate(150,63)"/>
<path d="M0 0 C3.85025879 0.60355408 6.86101159 1.76772603 10.3125 3.5625 C11.19550781 4.01753906 12.07851563 4.47257812 12.98828125 4.94140625 C13.65214844 5.29074219 14.31601562 5.64007813 15 6 C10.9361342 7.35462193 8.97196708 6.5066082 5 5 C2.0625 2.375 2.0625 2.375 0 0 Z " fill="#EDE905" transform="translate(24,67)"/>
<path d="M0 0 C0.33 0 0.66 0 1 0 C1.32374517 5.50366792 1.53286034 9.43672206 -2 14 C-0.02 14 1.96 14 4 14 C4 14.33 4 14.66 4 15 C1.36 15 -1.28 15 -4 15 C-4 13.35 -4 11.7 -4 10 C-2.68 9.34 -1.36 8.68 0 8 C0 5.36 0 2.72 0 0 Z " fill="#FBFBFB" transform="translate(78,132)"/>
<path d="M0 0 C1.32 0.66 2.64 1.32 4 2 C3.01 3.485 3.01 3.485 2 5 C3.65 6.65 5.3 8.3 7 10 C2.40693504 8.5140084 -0.43569245 6.14985318 -4 3 C-2.68 2.01 -1.36 1.02 0 0 Z " fill="#282421" transform="translate(125,136)"/>
<path d="M0 0 C1.65 0.33 3.3 0.66 5 1 C3.7508258 4.45925163 2.32472205 7.14693203 0 10 C-0.66 9.67 -1.32 9.34 -2 9 C-0.35 6.69 1.3 4.38 3 2 C1.35 2.66 -0.3 3.32 -2 4 C-1.34 2.68 -0.68 1.36 0 0 Z " fill="#F2F2F2" transform="translate(96,137)"/>
<path d="M0 0 C0.66 0.33 1.32 0.66 2 1 C-0.31 2.65 -2.62 4.3 -5 6 C-4.34 6.33 -3.68 6.66 -3 7 C-3 7.66 -3 8.32 -3 9 C-4.8125 9.6875 -4.8125 9.6875 -7 10 C-7.99 9.01 -8.98 8.02 -10 7 C-6.7 4.69 -3.4 2.38 0 0 Z " fill="#2E2921" transform="translate(75,131)"/>
<path d="M0 0 C0.33 0 0.66 0 1 0 C1.33 3.96 1.66 7.92 2 12 C3.65 12.33 5.3 12.66 7 13 C5.75 14.5625 5.75 14.5625 4 16 C2.68 15.67 1.36 15.34 0 15 C0 10.05 0 5.1 0 0 Z " fill="#AEC61C" transform="translate(62,126)"/>
<path d="M0 0 C4 2 4 2 5.8125 3.0625 C8.80912721 4.3467688 11.77763576 4.62818874 15 5 C11.91111478 7.05925681 11.29064073 7.2390374 7.8125 7.125 C5.9253125 7.063125 5.9253125 7.063125 4 7 C2.02 3.535 2.02 3.535 0 0 Z " fill="#464244" transform="translate(75,97)"/>
<path d="M0 0 C1.2065625 0.0309375 1.2065625 0.0309375 2.4375 0.0625 C1.1175 1.3825 -0.2025 2.7025 -1.5625 4.0625 C-0.5725 4.7225 0.4175 5.3825 1.4375 6.0625 C0.0625 7.5625 0.0625 7.5625 -1.5625 9.0625 C-2.2225 9.0625 -2.8825 9.0625 -3.5625 9.0625 C-3.66015625 2.91015625 -3.66015625 2.91015625 -3.5625 1.0625 C-2.5625 0.0625 -2.5625 0.0625 0 0 Z " fill="#DCE10C" transform="translate(122.5625,86.9375)"/>
<path d="M0 0 C1.32 0.33 2.64 0.66 4 1 C3.67 1.99 3.34 2.98 3 4 C5.31 5.65 7.62 7.3 10 9 C9.01 9.495 9.01 9.495 8 10 C4.7 7.69 1.4 5.38 -2 3 C-1.34 2.67 -0.68 2.34 0 2 C0 1.34 0 0.68 0 0 Z " fill="#2A2521" transform="translate(44,75)"/>
<path d="M0 0 C2.625 0.75 2.625 0.75 5 2 C5.33 2.66 5.66 3.32 6 4 C5.01 4.33 4.02 4.66 3 5 C3.33 5.66 3.66 6.32 4 7 C1.0625 6.1875 1.0625 6.1875 -2 5 C-2.33 4.01 -2.66 3.02 -3 2 C-2.01 1.34 -1.02 0.68 0 0 Z " fill="#3A3520" transform="translate(31,74)"/>
<path d="M0 0 C4.9359375 2.7625 4.9359375 2.7625 6.2109375 5.3125 C1.64639499 4.76910208 -1.7618801 3.51786179 -5.7890625 1.3125 C-3.72342927 -0.34000658 -2.53690261 -0.97487961 0 0 Z " fill="#908B15" transform="translate(148.7890625,163.6875)"/>
<path d="M0 0 C2.91517292 1.07401108 4.77810176 1.77810176 7 4 C7 4.66 7 5.32 7 6 C8.29233607 7.37310707 9.62437146 8.71034824 11 10 C6.39137539 8.50897439 3.46669756 6.30545582 0 3 C0 2.01 0 1.02 0 0 Z " fill="#282421" transform="translate(12,58)"/>
<path d="M0 0 C4.75 1.875 4.75 1.875 7 3 C7 2.34 7 1.68 7 1 C8.65 1.33 10.3 1.66 12 2 C11.01 2.495 11.01 2.495 10 3 C10 3.66 10 4.32 10 5 C7.8125 5.3125 7.8125 5.3125 5 5 C2.1875 2.5 2.1875 2.5 0 0 Z " fill="#37763B" transform="translate(41,85)"/>
<path d="M0 0 C2.125 0.9375 2.125 0.9375 4 2 C0.97727468 5.25524265 -2.25718301 7.61820737 -6 10 C-4.63016497 6.83884224 -4.0109362 6.0072908 -1 4 C-1.33 3.01 -1.66 2.02 -2 1 C-1.34 0.67 -0.68 0.34 0 0 Z " fill="#35311E" transform="translate(104,89)"/>
<path d="M0 0 C3.32134957 1.14171392 6.29652203 2.65898368 9.3125 4.4375 C10.00988281 4.84871094 10.70726562 5.25992188 11.42578125 5.68359375 C11.94527344 6.11800781 12.46476563 6.55242187 13 7 C13 7.99 13 8.98 13 10 C12.01 9.67 11.02 9.34 10 9 C10 8.34 10 7.68 10 7 C9.278125 6.773125 8.55625 6.54625 7.8125 6.3125 C4.46790687 4.75168987 2.48396041 2.6968713 0 0 Z " fill="#2B2721" transform="translate(132,146)"/>
<path d="M0 0 C2.0625 0.4375 2.0625 0.4375 4 1 C2.4169423 5.2742558 -0.50568404 7.26531794 -4 10 C-4.66 9.67 -5.32 9.34 -6 9 C-4.47005208 7.76302083 -2.94010417 6.52604167 -1.41015625 5.2890625 C0.13266437 4.0333609 0.13266437 4.0333609 1 2 C0.34 1.67 -0.32 1.34 -1 1 C-0.67 0.67 -0.34 0.34 0 0 Z " fill="#282421" transform="translate(137,73)"/>
<path d="M0 0 C1.32 1.65 2.64 3.3 4 5 C4.66 4.34 5.32 3.68 6 3 C6 4.65 6 6.3 6 8 C5.01 8 4.02 8 3 8 C0.75 5.6875 0.75 5.6875 -1 3 C-0.67 2.01 -0.34 1.02 0 0 Z " fill="#412123" transform="translate(70,48)"/>
<path d="M0 0 C0.66 0.33 1.32 0.66 2 1 C-1.75 4 -1.75 4 -4 4 C-4 4.66 -4 5.32 -4 6 C-3.34 6.33 -2.68 6.66 -2 7 C-2.99 7.495 -2.99 7.495 -4 8 C-4.99 7.67 -5.98 7.34 -7 7 C-7 6.01 -7 5.02 -7 4 C-1.7265625 0.77734375 -1.7265625 0.77734375 0 0 Z " fill="#2C2821" transform="translate(39,149)"/>
<path d="M0 0 C2.475 0.495 2.475 0.495 5 1 C4.67 2.32 4.34 3.64 4 5 C2.68 5 1.36 5 0 5 C0 3.35 0 1.7 0 0 Z " fill="#2FAB55" transform="translate(85,109)"/>
<path d="M0 0 C2.2636564 1.40445835 4.0208685 3.1967913 6 5 C5.01 5.495 5.01 5.495 4 6 C1.64018187 5.06421005 -0.69631264 4.06652192 -3 3 C-3 2.34 -3 1.68 -3 1 C-2.01 0.67 -1.02 0.34 0 0 Z " fill="#494747" transform="translate(90,86)"/>
<path d="M0 0 C1.625 2.5 1.625 2.5 3 5 C2.319375 4.690625 1.63875 4.38125 0.9375 4.0625 C-2.36965912 2.86629351 -5.51545878 2.40994603 -9 2 C-9 1.67 -9 1.34 -9 1 C-2.25 0 -2.25 0 0 0 Z " fill="#413E3F" transform="translate(94,128)"/>
<path d="M0 0 C0.33 0.66 0.66 1.32 1 2 C1.66 2.33 2.32 2.66 3 3 C1.02 3.66 -0.96 4.32 -3 5 C-3.66 3.68 -4.32 2.36 -5 1 C-3.35 0.67 -1.7 0.34 0 0 Z " fill="#333223" transform="translate(51,92)"/>
</svg>
